<svg xmlns="http://www.w3.org/2000/svg" xmlns:xlink="http://www.w3.org/1999/xlink" width="700" height="432" version="1.1" viewBox="0 0 525 324"><g id="surface91"><path style="fill-rule:evenodd;fill:#4b0055;fill-opacity:1;stroke-width:.75;stroke-linecap:round;stroke-linejoin:round;stroke:#fff;stroke-opacity:1;stroke-miterlimit:10" d="M 317.433594 53.882813 L 315.703125 61.257813 L 299.15625 69.761719 L 294.6875 66.84375 L 282.351563 75.929688 L 251.597656 80.65625 L 245.226563 85.480469 L 233.648438 78.257813 L 218.488281 80.886719 L 213.832031 80.382813 L 205.503906 89.007813 L 188.910156 89.613281 L 182.59375 80.175781 L 187.324219 72.371094 L 182.191406 71.390625 L 170.082031 54.066406 L 177.363281 42.578125 L 218.488281 40.679688 L 243.464844 35.324219 L 253.640625 42.144531 L 268.835938 42.148438 L 280.289063 47.855469 Z M 317.433594 53.882813"/><path style="fill-rule:evenodd;fill:#4b0055;fill-opacity:1;stroke-width:.75;stroke-linecap:round;stroke-linejoin:round;stroke:#fff;stroke-opacity:1;stroke-miterlimit:10" d="M 392.980469 56.871094 L 386.714844 64.15625 L 378.066406 65.164063 L 378.285156 73.296875 L 365.308594 71.753906 L 352.558594 80.933594 L 349.167969 86.765625 L 351.359375 90.90625 L 354.761719 97.324219 L 345.933594 100.53125 L 346.054688 98.070313 L 344.242188 98.070313 L 343.359375 100.707031 L 341.390625 101.089844 L 336.730469 98.070313 L 333.464844 90.90625 L 331.886719 87.441406 L 322.238281 80.164063 L 304.941406 81.699219 L 299.15625 69.761719 L 315.703125 61.257813 L 317.433594 53.882813 L 353.648438 47.238281 L 357.652344 50.53125 L 368.742188 45.675781 Z M 392.980469 56.871094"/><path style="fill-rule:evenodd;fill:#fde333;fill-opacity:1;stroke-width:.75;stroke-linecap:round;stroke-linejoin:round;stroke:#fff;stroke-opacity:1;stroke-miterlimit:10" d="M 337.003906 255.882813 L 328.828125 265.816406 L 327.199219 275.835938 L 313.722656 291.199219 L 305.429688 287.777344 L 292.136719 297.90625 L 271.640625 298.773438 L 270.003906 288.605469 L 259.597656 291.992188 L 249.316406 285.449219 L 253.484375 275.539063 L 263.140625 273.160156 L 269.933594 257.445313 L 280.609375 247 L 284.429688 234.976563 L 283.375 222.839844 L 305.769531 221.550781 L 323.179688 258.714844 L 328.160156 259.039063 L 330.671875 256.835938 Z M 337.003906 255.882813"/><path style="fill-rule:evenodd;fill:#fde333;fill-opacity:1;stroke-width:.75;stroke-linecap:round;stroke-linejoin:round;stroke:#fff;stroke-opacity:1;stroke-miterlimit:10" d="M 393.644531 71.199219 L 396.558594 83.144531 L 399.449219 84.59375 L 392.992188 90.90625 L 390.183594 93.648438 L 404.007813 105.632813 L 409.394531 110.300781 L 400.015625 110.542969 L 398.179688 111.84375 L 396.539063 117.964844 L 397.945313 124.453125 L 396.378906 144.046875 L 406.308594 156.28125 L 393.953125 169.90625 L 385.871094 171.46875 L 372.394531 190.644531 L 369.675781 190.644531 L 360.183594 196.6875 L 349.648438 190.644531 L 346.988281 189.117188 L 343.640625 175.296875 L 342.214844 169.964844 L 347.570313 162.738281 L 345.746094 155.335938 L 334.640625 146.347656 L 332.78125 140.613281 L 328.4375 127.238281 L 330.164063 124.453125 L 331.464844 107.695313 L 341.390625 101.089844 L 343.359375 100.707031 L 345.933594 100.53125 L 354.761719 97.324219 L 351.359375 90.90625 L 349.167969 86.765625 L 352.558594 80.933594 L 365.308594 71.753906 L 378.285156 73.296875 L 386.71875 69.238281 Z M 393.644531 71.199219"/><path style="fill-rule:evenodd;fill:#fde333;fill-opacity:1;stroke-width:.75;stroke-linecap:round;stroke-linejoin:round;stroke:#fff;stroke-opacity:1;stroke-miterlimit:10" d="M 414.464844 108.140625 L 408.980469 102.722656 L 410.777344 98.59375 L 416.425781 98.765625 L 424.613281 102.839844 L 425.109375 103.085938 L 424.613281 105.96875 L 424.0625 109.175781 Z M 414.464844 108.140625"/><path style="fill-rule:evenodd;fill:#fde333;fill-opacity:1;stroke-width:.75;stroke-linecap:round;stroke-linejoin:round;stroke:#fff;stroke-opacity:1;stroke-miterlimit:10" d="M 299.15625 69.761719 L 304.941406 81.699219 L 299.898438 90.90625 L 295.96875 98.070313 L 295.878906 105.632813 L 295.804688 111.84375 L 295.648438 124.453125 L 290.203125 136.382813 L 276.882813 140.613281 L 269.601563 142.925781 L 269.402344 154.886719 L 266.882813 155.695313 L 264 154.304688 L 261.363281 150.726563 L 215.589844 142.832031 L 201.296875 140.613281 L 191.125 139.035156 L 192.894531 132.160156 L 189.035156 124.453125 L 187.917969 122.222656 L 174.863281 120.019531 L 178.550781 106.714844 L 188.910156 89.613281 L 205.503906 89.007813 L 213.832031 80.382813 L 218.488281 80.886719 L 233.648438 78.257813 L 245.226563 85.480469 L 251.597656 80.65625 L 282.351563 75.929688 L 294.6875 66.84375 Z M 299.15625 69.761719"/><path style="fill-rule:evenodd;fill:#fde333;fill-opacity:1;stroke-width:.75;stroke-linecap:round;stroke-linejoin:round;stroke:#fff;stroke-opacity:1;stroke-miterlimit:10" d="M 343.640625 175.296875 L 319.621094 174.417969 L 309.261719 166.859375 L 302.300781 170.191406 L 291.738281 163.554688 L 294.839844 150.277344 L 289.644531 145.238281 L 289.9375 140.613281 L 290.203125 136.382813 L 295.648438 124.453125 L 295.804688 111.84375 L 295.878906 105.632813 L 295.96875 98.070313 L 299.898438 90.90625 L 304.941406 81.699219 L 322.238281 80.164063 L 331.886719 87.441406 L 333.464844 90.90625 L 336.730469 98.070313 L 341.390625 101.089844 L 331.464844 107.695313 L 330.164063 124.453125 L 328.4375 127.238281 L 332.78125 140.613281 L 334.640625 146.347656 L 345.746094 155.335938 L 347.570313 162.738281 L 342.214844 169.964844 Z M 343.640625 175.296875"/><path style="fill-rule:evenodd;fill:#fde333;fill-opacity:1;stroke-width:.75;stroke-linecap:round;stroke-linejoin:round;stroke:#fff;stroke-opacity:1;stroke-miterlimit:10" d="M 345.933594 100.53125 L 343.359375 100.707031 L 344.242188 98.070313 L 346.054688 98.070313 Z M 345.933594 100.53125"/><path style="fill-rule:evenodd;fill:#fde333;fill-opacity:1;stroke-width:.75;stroke-linecap:round;stroke-linejoin:round;stroke:#fff;stroke-opacity:1;stroke-miterlimit:10" d="M 274.265625 219.109375 L 283.375 222.839844 L 284.429688 234.976563 L 280.609375 247 L 269.933594 257.445313 L 263.140625 273.160156 L 253.484375 275.539063 L 249.316406 285.449219 L 245.257813 282.035156 L 236.304688 285.066406 L 223.734375 272.347656 L 215.589844 274.394531 L 200.886719 286.734375 L 186.632813 287.203125 L 190.214844 280.445313 L 189.53125 245.039063 L 183.03125 230.507813 L 189.753906 228.574219 L 196.378906 217.371094 L 208.058594 210.710938 L 215.589844 212.378906 L 237.15625 220.53125 L 241.535156 215.664063 L 253.03125 215.082031 L 271.019531 222.371094 Z M 274.265625 219.109375"/><path style="fill-rule:evenodd;fill:#fde333;fill-opacity:1;stroke-width:.75;stroke-linecap:round;stroke-linejoin:round;stroke:#fff;stroke-opacity:1;stroke-miterlimit:10" d="M 372.394531 190.644531 L 389.980469 209.976563 L 371.511719 220.378906 L 351.273438 236.320313 L 346.847656 247.277344 L 337.003906 255.882813 L 330.671875 256.835938 L 328.160156 259.039063 L 323.179688 258.714844 L 305.769531 221.550781 L 320.433594 202.128906 L 340.949219 195.742188 L 346.988281 189.117188 L 349.648438 190.644531 L 360.183594 196.6875 L 369.675781 190.644531 Z M 372.394531 190.644531"/><path style="fill-rule:evenodd;fill:#fde333;fill-opacity:1;stroke-width:.75;stroke-linecap:round;stroke-linejoin:round;stroke:#fff;stroke-opacity:1;stroke-miterlimit:10" d="M 465.074219 160.496094 L 467.148438 179.265625 L 459.402344 190.28125 L 458.449219 201.066406 L 452.445313 201.800781 L 449.683594 206.339844 L 451.886719 222.394531 L 434.375 227.339844 L 428.507813 222.226563 L 424.613281 218.832031 L 418.164063 213.210938 L 389.980469 209.976563 L 372.394531 190.644531 L 385.871094 171.46875 L 393.953125 169.90625 L 406.308594 156.28125 L 413.984375 151.511719 L 424.613281 156.832031 L 428.507813 151.609375 L 430.082031 149.496094 L 437.636719 147.800781 L 447.679688 151.238281 L 451.886719 158.488281 L 454.121094 162.335938 Z M 465.074219 160.496094"/><path style="fill-rule:evenodd;fill:#fde333;fill-opacity:1;stroke-width:.75;stroke-linecap:round;stroke-linejoin:round;stroke:#fff;stroke-opacity:1;stroke-miterlimit:10" d="M 343.640625 175.296875 L 346.988281 189.117188 L 340.949219 195.742188 L 320.433594 202.128906 L 305.769531 221.550781 L 283.375 222.839844 L 274.265625 219.109375 L 272.199219 200.722656 L 274.761719 190.644531 L 270.140625 177.566406 L 273.585938 160.660156 L 269.402344 154.886719 L 269.601563 142.925781 L 276.882813 140.613281 L 290.203125 136.382813 L 289.9375 140.613281 L 289.644531 145.238281 L 294.839844 150.277344 L 291.738281 163.554688 L 302.300781 170.191406 L 309.261719 166.859375 L 319.621094 174.417969 Z M 343.640625 175.296875"/><path style="fill-rule:evenodd;fill:#fde333;fill-opacity:1;stroke-width:.75;stroke-linecap:round;stroke-linejoin:round;stroke:#fff;stroke-opacity:1;stroke-miterlimit:10" d="M 266.882813 155.695313 L 265.296875 158.3125 L 261.363281 150.726563 L 264 154.304688 Z M 266.882813 155.695313"/><path style="fill-rule:evenodd;fill:#fde333;fill-opacity:1;stroke-width:.75;stroke-linecap:round;stroke-linejoin:round;stroke:#fff;stroke-opacity:1;stroke-miterlimit:10" d="M 261.363281 150.726563 L 265.296875 158.3125 L 266.882813 155.695313 L 269.402344 154.886719 L 273.585938 160.660156 L 270.140625 177.566406 L 274.761719 190.644531 L 272.199219 200.722656 L 274.265625 219.109375 L 271.019531 222.371094 L 253.03125 215.082031 L 241.535156 215.664063 L 237.15625 220.53125 L 215.589844 212.378906 L 208.058594 210.710938 L 210 210.027344 L 211.625 206.933594 L 215.589844 204.28125 L 223.269531 190.644531 L 217.539063 183.617188 L 205.875 179.902344 L 201.179688 163.085938 L 179.925781 160.121094 L 180.902344 148.015625 L 189.328125 140.613281 L 191.125 139.035156 L 201.296875 140.613281 L 215.589844 142.832031 Z M 261.363281 150.726563"/><path style="fill-rule:evenodd;fill:#4b0055;fill-opacity:1;stroke-width:.75;stroke-linecap:round;stroke-linejoin:round;stroke:#fff;stroke-opacity:1;stroke-miterlimit:10" d="M 140.234375 28.335938 L 136.953125 45.160156 L 126.652344 66.792969 L 128.144531 85.464844 L 125.398438 90.90625 L 123.558594 94.558594 L 113.039063 94.320313 L 105.066406 98.070313 L 85.53125 105.632813 L 83.140625 106.558594 L 67.695313 115.679688 L 67.277344 105.632813 L 68.769531 100.917969 L 59.6875 98.070313 L 60.417969 90.90625 L 54.1875 84.035156 L 60.390625 70.371094 L 75.714844 59.976563 L 108.078125 55.371094 L 107.066406 45.6875 L 110.164063 40.828125 L 128.394531 28.105469 Z M 140.234375 28.335938"/><path style="fill-rule:evenodd;fill:#4b0055;fill-opacity:1;stroke-width:.75;stroke-linecap:round;stroke-linejoin:round;stroke:#fff;stroke-opacity:1;stroke-miterlimit:10" d="M 177.363281 42.578125 L 170.082031 54.066406 L 182.191406 71.390625 L 187.324219 72.371094 L 182.59375 80.175781 L 188.910156 89.613281 L 178.550781 106.714844 L 174.863281 120.019531 L 171.910156 124.453125 L 167.984375 130.351563 L 159.527344 125.8125 L 148.785156 128.40625 L 139.570313 124.453125 L 132.4375 121.390625 L 127.394531 114.753906 L 128.171875 111.84375 L 129.832031 105.632813 L 123.558594 94.558594 L 125.398438 90.90625 L 128.144531 85.464844 L 126.652344 66.792969 L 136.953125 45.160156 L 140.234375 28.335938 L 153.433594 29.804688 L 164.710938 39.640625 Z M 177.363281 42.578125"/><path style="fill-rule:evenodd;fill:#4b0055;fill-opacity:1;stroke-width:.75;stroke-linecap:round;stroke-linejoin:round;stroke:#fff;stroke-opacity:1;stroke-miterlimit:10" d="M 174.863281 120.019531 L 187.917969 122.222656 L 189.035156 124.453125 L 192.894531 132.160156 L 191.125 139.035156 L 189.328125 140.613281 L 180.902344 148.015625 L 179.925781 160.121094 L 170.289063 159.984375 L 167.992188 166.972656 L 155.992188 170.871094 L 138.300781 165.308594 L 120.660156 171.390625 L 114.363281 171.5625 L 112.628906 163.578125 L 117.730469 155.164063 L 112.476563 146.449219 L 110.648438 140.613281 L 105.582031 124.453125 L 112.921875 117.089844 L 127.394531 114.753906 L 132.4375 121.390625 L 139.570313 124.453125 L 148.785156 128.40625 L 159.527344 125.8125 L 167.984375 130.351563 L 171.910156 124.453125 Z M 174.863281 120.019531"/><path style="fill-rule:evenodd;fill:#4b0055;fill-opacity:1;stroke-width:.75;stroke-linecap:round;stroke-linejoin:round;stroke:#fff;stroke-opacity:1;stroke-miterlimit:10" d="M 123.558594 94.558594 L 129.832031 105.632813 L 128.171875 111.84375 L 127.394531 114.753906 L 112.921875 117.089844 L 105.582031 124.453125 L 110.648438 140.613281 L 112.476563 146.449219 L 89.71875 154.136719 L 75.554688 167.546875 L 75.394531 151.523438 L 79.679688 140.613281 L 77.417969 137.28125 L 79.894531 130.222656 L 77.109375 124.453125 L 83.140625 106.558594 L 85.53125 105.632813 L 105.066406 98.070313 L 113.039063 94.320313 Z M 123.558594 94.558594"/><path style="fill-rule:evenodd;fill:#009b95;fill-opacity:1;stroke-width:.75;stroke-linecap:round;stroke-linejoin:round;stroke:#fff;stroke-opacity:1;stroke-miterlimit:10" d="M 433.710938 121.425781 L 451.886719 129.117188 L 458.945313 132.101563 L 469.84375 140.613281 L 470.8125 146.03125 L 465.597656 157.390625 L 465.074219 160.496094 L 454.121094 162.335938 L 451.886719 158.488281 L 447.679688 151.238281 L 437.636719 147.800781 L 430.082031 149.496094 L 428.507813 151.609375 L 424.613281 156.832031 L 413.984375 151.511719 L 406.308594 156.28125 L 396.378906 144.046875 L 397.945313 124.453125 L 396.539063 117.964844 L 398.179688 111.84375 L 400.015625 110.542969 L 409.394531 110.300781 L 413.722656 111.84375 L 417.503906 113.195313 L 421.640625 121.175781 L 424.613281 121.238281 L 428.507813 121.320313 Z M 433.710938 121.425781"/></g></svg>