<?xml version="1.0" encoding="UTF-8"?>
<svg xmlns="http://www.w3.org/2000/svg" xmlns:xlink="http://www.w3.org/1999/xlink" width="525pt" height="324pt" viewBox="0 0 525 324" version="1.1">
<g id="surface76">
<path style="fill-rule:evenodd;fill:rgb(29.411765%,0%,33.333333%);fill-opacity:1;stroke-width:0.75;stroke-linecap:round;stroke-linejoin:round;stroke:rgb(0%,0%,0%);stroke-opacity:1;stroke-miterlimit:10;" d="M 298.976563 207.246094 L 299.363281 207.570313 L 299.59375 207.675781 L 299.652344 207.710938 L 299.769531 207.835938 L 299.839844 207.859375 L 299.878906 207.894531 L 299.917969 208.269531 L 300.285156 208.984375 L 300.691406 209.316406 L 300.820313 209.589844 L 301 209.769531 L 301.769531 210.21875 L 300.902344 210.730469 L 300.746094 210.945313 L 300.570313 211.171875 L 300.109375 211.085938 L 299.964844 211.292969 L 299.925781 211.761719 L 300.058594 212.511719 L 299.808594 213.113281 L 300.003906 213.636719 L 300.316406 214.058594 L 300.128906 214.664063 L 299.972656 214.796875 L 299.703125 215.449219 L 299.695313 215.808594 L 299.546875 215.84375 L 299.371094 216.238281 L 299.308594 216.800781 L 299.355469 217.050781 L 299.433594 217.242188 L 299.441406 217.515625 L 299.652344 217.878906 L 299.496094 218.21875 L 299.023438 218.191406 L 298.882813 218.054688 L 298.542969 218.242188 L 298.289063 218.039063 L 297.941406 217.945313 L 298.011719 218.3125 L 298.265625 218.542969 L 298.414063 219.019531 L 298.328125 219.414063 L 298.429688 219.769531 L 298.339844 219.992188 L 298.683594 220.269531 L 298.65625 220.351563 L 298.589844 220.546875 L 298.617188 220.90625 L 298.570313 220.976563 L 298.152344 220.9375 L 297.800781 221.164063 L 297.535156 220.878906 L 297.386719 221.132813 L 297.039063 221.273438 L 296.574219 221.304688 L 296.523438 221.488281 L 296.484375 221.585938 L 296.546875 221.789063 L 296.300781 221.949219 L 296.164063 222 L 295.605469 222.003906 L 295.375 222.148438 L 294.945313 222.578125 L 294.328125 222.949219 L 294.191406 223.105469 L 294.117188 223.304688 L 294.054688 223.476563 L 293.621094 223.726563 L 293.421875 223.964844 L 292.882813 224.398438 L 292.738281 224.613281 L 292.707031 224.949219 L 292.855469 225.25 L 292.808594 225.765625 L 292.5 225.863281 L 292.476563 226.105469 L 292.527344 226.273438 L 292.460938 226.46875 L 292.519531 226.671875 L 292.289063 227.105469 L 292.238281 227.496094 L 292.296875 227.902344 L 292.195313 228.355469 L 292.21875 228.660156 L 292.390625 228.917969 L 292.363281 229.089844 L 292.355469 229.335938 L 292.339844 229.378906 L 292.246094 229.367188 L 292.125 229.238281 L 291.890625 229.242188 L 291.828125 229.234375 L 291.664063 229.210938 L 291.328125 229.015625 L 291.210938 228.859375 L 291.121094 228.808594 L 290.9375 228.835938 L 290.820313 228.71875 L 290.632813 228.933594 L 290.277344 228.976563 L 289.933594 228.464844 L 289.847656 228.007813 L 289.523438 227.964844 L 289.101563 227.75 L 289.007813 227.589844 L 288.792969 227.527344 L 288.695313 227.574219 L 288.507813 227.550781 L 288.371094 227.632813 L 288.269531 227.847656 L 288.175781 228.332031 L 287.976563 228.464844 L 288.023438 228.558594 L 287.867188 228.863281 L 287.894531 229.167969 L 287.753906 229.617188 L 287.746094 230.007813 L 287.589844 230.179688 L 287.433594 230.585938 L 286.75 230.894531 L 286.683594 231.375 L 286.519531 231.546875 L 286.378906 231.839844 L 286.441406 232.085938 L 286.324219 232.304688 L 286.320313 232.515625 L 285.878906 232.523438 L 285.625 232.601563 L 285.585938 232.613281 L 285.328125 232.539063 L 285.179688 232.5 L 284.941406 232.0625 L 284.710938 231.996094 L 284.640625 232.0625 L 284.789063 232.460938 L 284.757813 232.832031 L 284.890625 233.273438 L 284.917969 233.710938 L 285.117188 234.164063 L 285.144531 234.484375 L 285.257813 234.570313 L 285.285156 234.785156 L 285.398438 234.800781 L 285.605469 234.992188 L 285.625 235.066406 L 285.703125 235.34375 L 285.734375 235.773438 L 285.625 235.90625 L 285.542969 236.007813 L 285.554688 236.140625 L 285.449219 236.277344 L 284.988281 236.328125 L 284.785156 236.410156 L 284.683594 236.523438 L 284.59375 236.703125 L 284.640625 236.9375 L 284.589844 237.183594 L 284.332031 237.304688 L 284.0625 237.539063 L 283.894531 237.527344 L 283.757813 237.335938 L 283.808594 237.449219 L 283.804688 237.820313 L 283.988281 238.074219 L 284.074219 238.269531 L 284.136719 238.296875 L 284.203125 238.308594 L 284.265625 238.347656 L 284.355469 238.429688 L 284.351563 238.5 L 284.410156 238.613281 L 284.511719 238.851563 L 284.585938 238.921875 L 284.625 239.304688 L 284.652344 239.371094 L 284.476563 239.617188 L 284.363281 239.714844 L 283.714844 239.910156 L 283.320313 240.3125 L 282.332031 240.914063 L 282.445313 241.09375 L 282.410156 241.496094 L 282.574219 241.914063 L 282.230469 242.066406 L 281.96875 242.019531 L 281.78125 242.074219 L 281.359375 241.941406 L 281.058594 241.941406 L 280.839844 242.058594 L 280.507813 241.917969 L 280.390625 241.9375 L 280.054688 241.816406 L 279.574219 241.980469 L 278.902344 242.269531 L 278.609375 242.167969 L 278.203125 242.253906 L 277.957031 242.5 L 277.648438 242.898438 L 277.171875 243.003906 L 277 243.132813 L 276.867188 243.117188 L 276.761719 243.238281 L 276.683594 243.21875 L 276.492188 243.445313 L 276.015625 243.4375 L 275.664063 243.40625 L 275.488281 243.464844 L 275.25 243.378906 L 274.558594 242.746094 L 274.292969 242.644531 L 274.042969 242.714844 L 273.777344 242.894531 L 273.4375 242.78125 L 273.144531 242.636719 L 272.714844 242.109375 L 272.308594 242.167969 L 271.964844 242.148438 L 271.5 242.054688 L 271.117188 242.472656 L 270.777344 242.503906 L 270.582031 242.394531 L 270.296875 242.414063 L 270.128906 242.519531 L 270.003906 242.765625 L 269.917969 242.707031 L 269.890625 242.507813 L 269.660156 242.296875 L 269.515625 242.269531 L 269.269531 242.503906 L 269.050781 242.269531 L 268.96875 241.539063 L 269.28125 240.863281 L 269.195313 240.667969 L 269.214844 240.492188 L 268.890625 240.261719 L 268.777344 240.015625 L 268.6875 239.988281 L 268.652344 239.726563 L 268.265625 239.441406 L 268.261719 239.304688 L 268 239.070313 L 267.707031 239.011719 L 267.351563 239.171875 L 267.28125 239.175781 L 267.109375 239.179688 L 266.992188 239.117188 L 266.710938 238.769531 L 266.117188 238.714844 L 266.03125 238.574219 L 265.984375 238.429688 L 265.859375 238.328125 L 265.046875 238.089844 L 264.601563 238.09375 L 264.402344 238.121094 L 264.019531 237.863281 L 263.691406 237.742188 L 263.523438 237.773438 L 263.390625 237.691406 L 263.292969 237.472656 L 263.121094 237.316406 L 262.492188 236.945313 L 262.355469 236.714844 L 262.320313 236.449219 L 262.0625 236.503906 L 261.640625 236.457031 L 261.515625 236.441406 L 260.957031 236.304688 L 260.386719 235.671875 L 259.941406 235.375 L 259.757813 234.804688 L 259.589844 234.679688 L 259.488281 234.65625 L 259.378906 234.59375 L 259.304688 234.574219 L 259.160156 234.515625 L 259.097656 234.527344 L 259.070313 234.59375 L 258.984375 234.671875 L 258.734375 234.738281 L 258.785156 234.40625 L 258.75 234.324219 L 258.734375 234.054688 L 258.726563 234.007813 L 258.691406 233.949219 L 258.589844 233.71875 L 258.558594 233.625 L 258.546875 233.480469 L 258.523438 233.332031 L 258.519531 233.199219 L 258.417969 231.863281 L 258.335938 231.621094 L 257.964844 230.980469 L 257.882813 230.789063 L 257.84375 230.652344 L 257.816406 230.625 L 257.792969 230.535156 L 257.671875 230.226563 L 257.585938 230.128906 L 257.714844 229.949219 L 258.269531 229.703125 L 258.882813 229 L 259.070313 228.894531 L 259.019531 228.300781 L 258.941406 228.070313 L 259.242188 227.804688 L 259.480469 227.046875 L 259.503906 226.648438 L 259.429688 226.230469 L 259.480469 226.03125 L 259.710938 225.921875 L 260.082031 225.558594 L 260.78125 225.664063 L 261.035156 225.84375 L 261.160156 225.78125 L 261.398438 225.277344 L 261.640625 225.003906 L 261.777344 224.847656 L 262.246094 224.566406 L 262.367188 224.261719 L 262.632813 224.171875 L 263.273438 224.191406 L 263.703125 224.101563 L 264.039063 224.21875 L 264.394531 224.210938 L 264.785156 224.582031 L 264.96875 224.59375 L 265.414063 224.835938 L 266.003906 224.84375 L 266.261719 224.84375 L 266.527344 224.691406 L 266.878906 224.605469 L 267.28125 224.597656 L 267.378906 224.597656 L 267.699219 224.640625 L 267.863281 224.335938 L 268.046875 224.183594 L 268.027344 223.921875 L 268.195313 223.6875 L 268.371094 223.21875 L 268.519531 222.839844 L 268.40625 222.691406 L 268.746094 222.453125 L 268.839844 222.15625 L 268.75 222.042969 L 268.84375 221.863281 L 268.917969 221.792969 L 269.046875 221.816406 L 269.121094 222.140625 L 269.714844 221.914063 L 270.042969 221.855469 L 270.71875 221.234375 L 271.003906 221.074219 L 271.25 221.050781 L 271.824219 220.835938 L 272.1875 220.769531 L 272.738281 220.28125 L 272.910156 220.238281 L 273.105469 220.082031 L 273.582031 219.757813 L 273.695313 219.542969 L 274.09375 219.308594 L 274.074219 218.925781 L 274.699219 218.359375 L 275.222656 218.773438 L 275.625 218.871094 L 276.015625 219.375 L 276.148438 219.539063 L 276.230469 219.515625 L 276.417969 219.652344 L 276.929688 219.796875 L 277.34375 219.789063 L 277.617188 219.695313 L 277.808594 219.488281 L 278.058594 219.488281 L 278.351563 219.332031 L 279.066406 219.15625 L 279.195313 218.957031 L 279.261719 218.6875 L 279.761719 217.976563 L 279.820313 217.765625 L 280.402344 217.789063 L 280.785156 217.628906 L 281.421875 217.625 L 281.671875 217.675781 L 282.175781 218.125 L 282.277344 218.242188 L 282.542969 218.472656 L 282.828125 218.609375 L 283.152344 218.683594 L 283.34375 218.921875 L 283.449219 218.925781 L 284.039063 218.636719 L 284.222656 218.335938 L 284.347656 218.378906 L 284.503906 218.335938 L 284.785156 218.527344 L 285.085938 218.613281 L 285.335938 218.730469 L 285.625 218.75 L 285.710938 218.753906 L 285.722656 218.640625 L 285.613281 218.457031 L 285.765625 218.25 L 285.757813 217.898438 L 287.21875 217.085938 L 287.582031 216.75 L 287.644531 216.648438 L 287.671875 216.617188 L 287.421875 216.550781 L 287.332031 216.457031 L 287.261719 215.964844 L 287.316406 215.484375 L 287.199219 215.332031 L 287.28125 215.042969 L 287.273438 214.707031 L 287.546875 214.4375 L 287.75 214.480469 L 287.910156 213.605469 L 288.246094 213.125 L 288.441406 212.996094 L 288.558594 212.832031 L 288.605469 212.628906 L 288.996094 212 L 289.035156 211.324219 L 289.300781 211.164063 L 289.515625 210.613281 L 289.75 210.191406 L 289.960938 209.976563 L 290.125 210.097656 L 290.203125 210.070313 L 290.589844 209.703125 L 290.734375 209.414063 L 291 209.128906 L 291.050781 208.976563 L 291.191406 208.953125 L 291.542969 208.6875 L 291.6875 208.691406 L 291.722656 208.664063 L 291.828125 208.777344 L 291.890625 208.851563 L 292.132813 208.984375 L 292.429688 208.855469 L 292.542969 208.730469 L 292.726563 208.457031 L 293.195313 208.25 L 293.617188 207.808594 L 293.601563 206.789063 L 293.671875 206.511719 L 293.617188 206.375 L 293.480469 206.28125 L 293.679688 206.199219 L 293.902344 205.996094 L 294.117188 205.933594 L 294.292969 205.726563 L 294.609375 205.664063 L 294.855469 205.886719 L 295.21875 206.046875 L 295.574219 206.09375 L 296.058594 206.449219 L 296.277344 206.453125 L 296.488281 206.582031 L 297.054688 206.777344 L 297.34375 207.042969 L 297.851563 207.101563 L 298.34375 207.3125 L 298.65625 207.328125 Z M 298.976563 207.246094 "/>
<path style="fill-rule:evenodd;fill:rgb(15.294118%,28.627451%,51.372549%);fill-opacity:1;stroke-width:0.75;stroke-linecap:round;stroke-linejoin:round;stroke:rgb(0%,0%,0%);stroke-opacity:1;stroke-miterlimit:10;" d="M 262.71875 78.492188 L 262.636719 78.445313 L 262.53125 78.800781 L 262.113281 79.230469 L 261.851563 79.171875 L 261.894531 78.925781 L 261.761719 78.746094 L 261.640625 78.738281 L 261.460938 78.722656 L 261.25 78.851563 L 261.105469 78.863281 L 261.039063 78.886719 L 260.808594 79.128906 L 260.558594 79.179688 L 260.429688 79.351563 L 260.195313 79.675781 L 259.933594 79.789063 L 259.851563 80.023438 L 259.453125 80.222656 L 259.242188 80.226563 L 259.226563 80.332031 L 259.074219 80.460938 L 258.84375 80.300781 L 258.851563 80.054688 L 258.800781 80.03125 L 258.328125 80.402344 L 258.421875 80.535156 L 258.398438 80.753906 L 258.660156 80.894531 L 258.738281 81.324219 L 258.648438 81.734375 L 258.820313 81.996094 L 258.785156 82.234375 L 258.859375 82.359375 L 258.3125 82.71875 L 258.296875 82.8125 L 258.503906 83.234375 L 258.472656 83.359375 L 258.769531 83.386719 L 258.085938 83.703125 L 258.1875 83.941406 L 258.101563 84.023438 L 258.125 84.128906 L 258.625 84.382813 L 258.597656 84.4375 L 258.617188 84.511719 L 258.628906 84.636719 L 258.585938 84.679688 L 258.628906 84.789063 L 258.671875 84.816406 L 258.742188 85.054688 L 258.566406 85.269531 L 258.953125 85.3125 L 259.261719 85.742188 L 259.28125 85.804688 L 259.1875 86.109375 L 259.269531 86.355469 L 259.121094 86.460938 L 259.261719 86.523438 L 259.332031 86.78125 L 258.835938 86.859375 L 258.605469 86.816406 L 257.996094 86.847656 L 257.804688 86.714844 L 257.679688 87.109375 L 257.5 87.375 L 257.429688 87.5 L 257.453125 87.828125 L 257.742188 88.023438 L 257.550781 88.179688 L 257.527344 88.546875 L 257.710938 88.863281 L 258.613281 88.585938 L 258.753906 88.839844 L 258.714844 88.964844 L 258.578125 88.96875 L 258.648438 89.269531 L 258.582031 89.328125 L 258.695313 89.445313 L 258.878906 89.605469 L 258.789063 89.910156 L 258.945313 90.300781 L 258.910156 90.699219 L 258.945313 90.71875 L 258.953125 90.773438 L 259.164063 90.765625 L 259.207031 91.125 L 259.160156 91.289063 L 259.257813 91.445313 L 259.277344 91.621094 L 259.382813 91.851563 L 259.347656 92.128906 L 259.589844 92.230469 L 259.632813 92.582031 L 259.476563 92.785156 L 259.683594 92.953125 L 259.589844 93.25 L 259.589844 93.527344 L 259.925781 93.570313 L 259.945313 93.601563 L 259.992188 93.734375 L 260.125 93.835938 L 260.121094 93.960938 L 260.390625 94.226563 L 260.472656 94.414063 L 260.40625 94.777344 L 260.140625 95.003906 L 260.210938 95.113281 L 260.144531 95.519531 L 260.234375 95.605469 L 260.464844 95.742188 L 260.515625 95.757813 L 260.695313 95.640625 L 260.753906 95.757813 L 261.039063 95.660156 L 261.203125 95.621094 L 261.375 95.671875 L 261.492188 95.9375 L 261.640625 95.890625 L 261.785156 95.84375 L 261.886719 95.726563 L 262.011719 95.800781 L 262.261719 96.203125 L 262.625 96.371094 L 262.835938 96.339844 L 263.242188 96.449219 L 263.152344 96.695313 L 262.941406 96.886719 L 262.792969 96.933594 L 262.277344 96.84375 L 262.242188 97.519531 L 262.652344 98.136719 L 262.761719 98.175781 L 263.085938 98.023438 L 263.414063 98.132813 L 263.425781 98.082031 L 263.417969 97.90625 L 263.425781 97.863281 L 263.457031 97.8125 L 263.585938 97.753906 L 263.773438 97.84375 L 264.199219 97.800781 L 264.515625 97.957031 L 264.777344 97.828125 L 264.953125 98.167969 L 265.015625 98.289063 L 264.84375 98.589844 L 264.710938 98.582031 L 264.515625 99.035156 L 264.117188 99.238281 L 263.804688 99.832031 L 263.734375 100.421875 L 263.894531 100.433594 L 264.003906 100.324219 L 264.585938 100.269531 L 264.953125 100.101563 L 265.308594 99.734375 L 265.472656 99.730469 L 266.167969 99.414063 L 266.285156 99.277344 L 266.390625 99.289063 L 266.570313 99.285156 L 266.636719 99.273438 L 266.675781 99.285156 L 266.660156 99.332031 L 266.710938 99.441406 L 266.714844 99.519531 L 266.683594 99.636719 L 266.667969 99.761719 L 266.628906 99.902344 L 266.621094 99.960938 L 266.644531 100.101563 L 266.683594 100.246094 L 266.679688 100.289063 L 266.65625 100.347656 L 266.277344 100.382813 L 266.007813 100.277344 L 265.753906 100.359375 L 265.417969 100.9375 L 264.953125 101.058594 L 264.796875 101.101563 L 264.742188 101.269531 L 264.765625 101.550781 L 264.785156 101.613281 L 264.78125 101.777344 L 264.792969 101.847656 L 264.816406 101.894531 L 264.773438 101.917969 L 264.664063 102.011719 L 264.449219 102.117188 L 264.265625 102.316406 L 264.148438 102.390625 L 264.050781 102.472656 L 264.003906 102.496094 L 263.824219 102.554688 L 263.679688 102.625 L 263.628906 102.652344 L 263.546875 102.621094 L 263.503906 102.640625 L 263.464844 102.613281 L 263.425781 102.625 L 263.03125 102.550781 L 262.582031 102.714844 L 262.722656 102.96875 L 262.753906 103.269531 L 262.566406 103.457031 L 262.535156 103.761719 L 263.148438 104.457031 L 263.394531 104.578125 L 263.507813 104.84375 L 263.609375 104.933594 L 263.601563 105.375 L 263.589844 105.433594 L 263.5625 105.492188 L 263.179688 105.328125 L 263.058594 105.433594 L 262.929688 105.425781 L 262.601563 105.199219 L 262.324219 105.296875 L 262.15625 105.027344 L 262.101563 104.785156 L 261.957031 104.625 L 261.84375 104.433594 L 261.640625 104.519531 L 261.582031 104.542969 L 261.203125 104.71875 L 261.039063 104.621094 L 260.683594 104.546875 L 260.535156 104.566406 L 260.339844 104.535156 L 259.9375 104.632813 L 259.558594 104.410156 L 259.492188 104.25 L 259.488281 104.320313 L 259.304688 104.480469 L 259.253906 104.550781 L 259.191406 104.539063 L 259.070313 104.457031 L 258.988281 104.488281 L 258.949219 104.554688 L 258.90625 104.652344 L 258.851563 104.71875 L 258.835938 104.753906 L 258.792969 104.8125 L 258.757813 104.847656 L 258.679688 104.890625 L 258.601563 104.941406 L 258.554688 105.050781 L 258.515625 105.113281 L 258.488281 105.222656 L 258.445313 105.269531 L 258.441406 105.316406 L 258.019531 105.285156 L 257.804688 105.503906 L 257.792969 105.625 L 257.539063 105.484375 L 257.445313 105.402344 L 257.042969 105.339844 L 256.535156 105.140625 L 256.421875 104.988281 L 256.292969 104.976563 L 255.992188 105.089844 L 255.894531 105.214844 L 255.824219 105.28125 L 255.628906 105.496094 L 255.472656 105.585938 L 255.367188 105.671875 L 255.195313 105.753906 L 255.097656 105.769531 L 255.03125 105.761719 L 254.945313 105.742188 L 254.65625 105.628906 L 254.558594 105.582031 L 254.394531 105.507813 L 254.3125 105.460938 L 254.164063 105.457031 L 254.054688 105.441406 L 253.964844 105.410156 L 254.132813 105.21875 L 254.257813 104.113281 L 254.558594 104.09375 L 254.800781 104.078125 L 254.765625 104.042969 L 254.558594 103.933594 L 254.460938 103.847656 L 254.558594 103.738281 L 254.558594 103.515625 L 254.46875 103.472656 L 254.40625 103.578125 L 254.1875 103.589844 L 253.894531 103.761719 L 253.855469 103.902344 L 253.710938 103.996094 L 252.980469 103.808594 L 253.03125 103.941406 L 252.980469 104.109375 L 252.871094 104.179688 L 252.640625 104.148438 L 252.613281 104.289063 L 252.28125 104.015625 L 252.101563 103.652344 L 251.804688 103.554688 L 251.53125 103.238281 L 251.242188 102.925781 L 251.132813 102.257813 L 250.773438 102.109375 L 250.6875 102 L 250.484375 101.910156 L 250.273438 101.917969 L 250.125 102.136719 L 249.796875 102.269531 L 249.234375 102.761719 L 249.167969 102.855469 L 249.148438 102.953125 L 249.203125 103.054688 L 249.273438 103.148438 L 248.921875 103.453125 L 248.820313 103.527344 L 248.753906 103.617188 L 248.667969 103.75 L 248.636719 103.828125 L 248.605469 103.929688 L 248.515625 103.914063 L 248.425781 103.917969 L 248.378906 103.929688 L 248.363281 104.003906 L 248.230469 104.054688 L 248.070313 104.101563 L 247.960938 104.140625 L 247.457031 102.941406 L 247.15625 102.632813 L 246.945313 101.972656 L 246.601563 101.59375 L 246.574219 101.488281 L 246.503906 101.5 L 246.476563 101.4375 L 246.425781 101.414063 L 246.328125 101.433594 L 246.3125 101.394531 L 246.292969 101.285156 L 246.296875 101.054688 L 246.199219 101.015625 L 245.867188 101.019531 L 245.628906 101.175781 L 245.402344 101.46875 L 245.039063 101.46875 L 244.992188 101.210938 L 244.621094 100.992188 L 244.074219 101.398438 L 244.054688 101.523438 L 243.910156 101.640625 L 243.808594 101.269531 L 243.625 101.117188 L 243.492188 100.902344 L 243.53125 100.75 L 243.464844 100.628906 L 243.707031 100.214844 L 243.917969 100.101563 L 244.070313 99.890625 L 244.136719 99.644531 L 244.152344 99.492188 L 244.082031 99.371094 L 244.300781 99.003906 L 244.589844 98.867188 L 244.902344 98.707031 L 244.859375 98.652344 L 244.703125 98.042969 L 244.617188 97.808594 L 244.660156 97.71875 L 244.832031 97.527344 L 244.988281 97.324219 L 245.074219 97.195313 L 245.304688 97.066406 L 245.566406 97.0625 L 245.445313 96.925781 L 245.28125 96.726563 L 245.34375 96.675781 L 245.230469 96.539063 L 245.070313 96 L 245.117188 95.886719 L 245.046875 95.574219 L 245.082031 95.109375 L 244.710938 95.046875 L 244.34375 95.105469 L 244.242188 94.976563 L 243.992188 95.09375 L 243.960938 95.203125 L 243.800781 95.253906 L 243.394531 95.140625 L 243.226563 94.941406 L 243.007813 95.007813 L 243.011719 94.707031 L 242.90625 94.472656 L 243.167969 94.308594 L 243.292969 94.070313 L 243.300781 93.902344 L 243.140625 93.589844 L 243.050781 93.285156 L 243.054688 93.214844 L 243.152344 93.140625 L 243.238281 93.058594 L 243.355469 92.992188 L 243.378906 92.914063 L 243.355469 92.777344 L 243.382813 92.605469 L 243.328125 92.519531 L 243.246094 92.441406 L 243.179688 92.292969 L 243.226563 92.152344 L 243.390625 92.085938 L 243.363281 91.945313 L 243.417969 91.746094 L 243.441406 91.707031 L 243.433594 91.621094 L 243.445313 91.550781 L 243.527344 91.332031 L 243.847656 91.203125 L 244.109375 91.328125 L 244.5 91.128906 L 244.652344 90.71875 L 244.691406 90.382813 L 244.773438 90.222656 L 244.792969 89.894531 L 244.730469 89.773438 L 244.578125 89.777344 L 243.941406 90.011719 L 243.898438 90.007813 L 244.039063 89.699219 L 244.152344 89.039063 L 244.261719 88.910156 L 244.417969 88.964844 L 244.6875 88.953125 L 244.722656 88.820313 L 244.996094 88.738281 L 245.417969 88.820313 L 245.570313 88.679688 L 245.4375 88.527344 L 245.460938 88.402344 L 245.371094 88.277344 L 245.355469 87.945313 L 245.539063 87.664063 L 245.4375 87.410156 L 245.21875 87.304688 L 245.257813 87.289063 L 245.359375 87.214844 L 245.523438 86.992188 L 245.65625 86.941406 L 245.667969 86.839844 L 245.6875 86.757813 L 245.6875 86.683594 L 245.738281 86.527344 L 245.71875 86.441406 L 245.777344 86.304688 L 245.792969 86.226563 L 245.8125 85.972656 L 245.90625 85.355469 L 245.839844 85.148438 L 245.886719 84.605469 L 245.441406 84.46875 L 245.328125 84.230469 L 245.347656 83.945313 L 245.585938 83.5 L 245.625 83.28125 L 245.628906 83.042969 L 245.554688 82.824219 L 245.757813 82.238281 L 245.710938 81.6875 L 245.734375 81.367188 L 245.734375 81.292969 L 245.652344 81.066406 L 245.644531 80.996094 L 245.832031 80.398438 L 246.09375 80.050781 L 246.199219 79.992188 L 246.246094 79.945313 L 246.199219 79.90625 L 246.003906 79.8125 L 245.835938 79.523438 L 245.710938 79.5 L 245.425781 79.652344 L 245.324219 79.601563 L 245.332031 79.519531 L 245.269531 79.230469 L 245.0625 79.160156 L 244.898438 78.953125 L 244.957031 78.710938 L 244.914063 78.625 L 245.042969 78.640625 L 245.132813 78.570313 L 245.230469 78.570313 L 245.484375 77.988281 L 245.578125 77.890625 L 245.722656 77.855469 L 245.714844 77.464844 L 245.609375 77.171875 L 245.820313 76.566406 L 245.851563 76.46875 L 245.84375 76.425781 L 245.855469 76.386719 L 245.894531 76.324219 L 245.777344 76.199219 L 245.742188 76.152344 L 245.703125 76.136719 L 245.667969 76.105469 L 245.636719 76.039063 L 245.625 75.960938 L 245.636719 75.859375 L 245.648438 75.8125 L 245.6875 75.726563 L 245.746094 75.703125 L 245.890625 75.695313 L 245.949219 75.675781 L 246.003906 75.675781 L 246.0625 75.648438 L 246.199219 75.695313 L 246.398438 75.722656 L 246.578125 74.972656 L 246.617188 74.9375 L 246.753906 74.8125 L 246.945313 74.824219 L 246.976563 74.515625 L 247.527344 73.90625 L 247.523438 73.742188 L 247.675781 73.398438 L 247.601563 72.902344 L 247.824219 72.707031 L 247.863281 72.363281 L 248.152344 72.0625 L 248.417969 71.957031 L 248.644531 71.597656 L 248.992188 71.5 L 249.050781 71.433594 L 249.15625 71.414063 L 249.398438 71.53125 L 249.667969 71.320313 L 250.042969 71.292969 L 250.417969 71.425781 L 250.8125 71.441406 L 251.066406 71.539063 L 251.113281 71.550781 L 251.179688 71.492188 L 251.21875 71.421875 L 251.292969 71.355469 L 251.460938 71.300781 L 251.5 71.285156 L 251.558594 71.226563 L 251.644531 71.191406 L 251.78125 71.03125 L 252.101563 71.289063 L 252.46875 71.289063 L 252.78125 71.457031 L 253.546875 70.738281 L 254.058594 70.941406 L 254.46875 70.945313 L 254.558594 70.699219 L 254.589844 70.609375 L 254.761719 70.371094 L 254.910156 70.445313 L 255.113281 70.4375 L 255.449219 70.765625 L 255.992188 70.96875 L 256.160156 71.121094 L 256.375 71.570313 L 256.582031 71.800781 L 256.625 72.085938 L 256.847656 72.414063 L 257.191406 72.757813 L 258.125 72.910156 L 258.355469 72.851563 L 258.601563 72.933594 L 258.941406 72.953125 L 259.441406 73.246094 L 259.464844 74.195313 L 259.53125 74.300781 L 259.757813 74.441406 L 259.617188 74.644531 L 259.605469 74.8125 L 259.640625 74.9375 L 259.742188 75.296875 L 259.722656 75.867188 L 259.980469 76.179688 L 260.242188 76.21875 L 260.636719 75.859375 L 260.867188 75.84375 L 261.039063 75.703125 L 261.289063 75.507813 L 261.40625 75.578125 L 261.34375 75.613281 L 261.308594 75.65625 L 261.355469 75.691406 L 261.386719 75.75 L 261.46875 75.761719 L 261.511719 75.832031 L 261.640625 75.863281 L 261.785156 75.902344 L 261.796875 75.964844 L 261.75 76.003906 L 261.734375 76.183594 L 261.640625 76.285156 L 261.570313 76.363281 L 261.457031 76.648438 L 261.304688 76.605469 L 261.175781 76.4375 L 261.039063 76.464844 L 260.972656 76.65625 L 260.691406 76.730469 L 260.6875 76.808594 L 261.003906 76.882813 L 261.0625 77.027344 L 261 77.097656 L 260.808594 77.125 L 260.609375 76.921875 L 260.570313 76.980469 L 260.621094 77.128906 L 260.800781 77.226563 L 261.296875 77.703125 L 261.640625 77.644531 L 261.910156 77.597656 L 262.308594 77.683594 L 262.449219 78.113281 L 262.640625 78.242188 Z M 259.292969 79.195313 L 259.097656 79.132813 L 259.035156 79.109375 L 258.976563 79.125 L 258.9375 79.328125 L 259.164063 79.429688 Z M 259.292969 79.195313 "/>
<path style="fill-rule:evenodd;fill:rgb(15.294118%,28.627451%,51.372549%);fill-opacity:1;stroke-width:0.75;stroke-linecap:round;stroke-linejoin:round;stroke:rgb(0%,0%,0%);stroke-opacity:1;stroke-miterlimit:10;" d="M 264.417969 78.285156 L 264.359375 78.300781 L 264.347656 78.4375 L 264.21875 78.375 L 264.09375 78.417969 L 264.027344 78.421875 L 263.90625 78.394531 L 263.777344 78.355469 L 263.691406 78.371094 L 263.5625 78.332031 L 263.457031 78.351563 L 263.390625 78.199219 L 263.390625 77.953125 L 263.53125 77.734375 L 263.617188 77.710938 L 263.722656 77.785156 L 263.792969 77.726563 L 263.738281 77.417969 L 264.082031 77.214844 L 263.996094 76.902344 L 264.167969 76.644531 L 264.300781 76.597656 L 264.398438 76.726563 L 264.402344 77.167969 L 264.484375 77.449219 L 264.492188 77.878906 Z M 264.417969 78.285156 "/>
<path style="fill-rule:evenodd;fill:rgb(15.294118%,28.627451%,51.372549%);fill-opacity:1;stroke-width:0.75;stroke-linecap:round;stroke-linejoin:round;stroke:rgb(0%,0%,0%);stroke-opacity:1;stroke-miterlimit:10;" d="M 262.542969 94.828125 L 262.671875 94.761719 L 262.824219 94.628906 L 263.003906 94.785156 L 262.992188 94.917969 L 262.875 94.996094 L 263.148438 95.484375 L 263.117188 95.617188 L 263 95.574219 L 262.953125 95.476563 L 262.890625 95.472656 L 262.734375 95.378906 L 262.671875 95.351563 L 262.535156 95.332031 L 262.503906 95.355469 L 262.449219 95.367188 L 262.414063 95.382813 L 262.339844 95.453125 L 262.269531 95.460938 L 262.117188 95.300781 L 262.097656 95.210938 L 262.082031 94.882813 L 262.132813 94.863281 L 262.167969 94.898438 L 262.304688 94.878906 L 262.449219 94.90625 Z M 262.542969 94.828125 "/>
<path style="fill-rule:evenodd;fill:rgb(15.294118%,28.627451%,51.372549%);fill-opacity:1;stroke-width:0.75;stroke-linecap:round;stroke-linejoin:round;stroke:rgb(0%,0%,0%);stroke-opacity:1;stroke-miterlimit:10;" d="M 262.183594 76.6875 L 262.371094 76.800781 L 262.433594 76.789063 L 262.566406 76.941406 L 262.554688 77.175781 L 262.582031 77.289063 L 262.554688 77.445313 L 262.441406 77.535156 L 262.308594 77.605469 L 262.238281 77.519531 L 262.144531 77.359375 L 262.21875 77.203125 L 262.144531 77.082031 L 262.054688 76.988281 L 262.085938 76.9375 L 262.070313 76.835938 Z M 262.183594 76.6875 "/>
<path style="fill-rule:evenodd;fill:rgb(15.294118%,28.627451%,51.372549%);fill-opacity:1;stroke-width:0.75;stroke-linecap:round;stroke-linejoin:round;stroke:rgb(0%,0%,0%);stroke-opacity:1;stroke-miterlimit:10;" d="M 263.714844 96.285156 L 263.878906 96.703125 L 263.90625 96.921875 L 263.90625 96.988281 L 263.746094 97.054688 L 263.828125 96.789063 L 263.625 96.40625 Z M 263.714844 96.285156 "/>
<path style="fill-rule:evenodd;fill:rgb(15.294118%,28.627451%,51.372549%);fill-opacity:1;stroke-width:0.75;stroke-linecap:round;stroke-linejoin:round;stroke:rgb(0%,0%,0%);stroke-opacity:1;stroke-miterlimit:10;" d="M 258.992188 90.363281 L 259.082031 90.34375 L 259.085938 90.441406 L 259.003906 90.460938 Z M 258.992188 90.363281 "/>
<path style="fill-rule:evenodd;fill:rgb(0%,50.980392%,59.607843%);fill-opacity:1;stroke-width:0.75;stroke-linecap:round;stroke-linejoin:round;stroke:rgb(0%,0%,0%);stroke-opacity:1;stroke-miterlimit:10;" d="M 232.714844 96.550781 L 232.769531 96.886719 L 232.972656 97.121094 L 233.105469 97.378906 L 232.988281 97.628906 L 233.035156 97.667969 L 233.074219 97.710938 L 233.132813 97.75 L 233.226563 97.855469 L 233.234375 97.953125 L 233.371094 98.066406 L 233.429688 98.136719 L 233.300781 98.289063 L 233.394531 98.378906 L 233.40625 98.492188 L 233.609375 98.695313 L 233.714844 98.824219 L 233.714844 98.863281 L 233.746094 98.917969 L 233.738281 99.023438 L 233.679688 99.027344 L 233.597656 99.074219 L 233.558594 99.230469 L 233.390625 99.316406 L 233.488281 99.617188 L 233.917969 99.847656 L 233.949219 99.867188 L 234.253906 99.941406 L 234.433594 100.082031 L 234.445313 99.976563 L 234.480469 99.910156 L 234.535156 99.652344 L 234.527344 99.605469 L 234.535156 99.371094 L 234.582031 99.125 L 234.578125 99.074219 L 234.5625 99.039063 L 234.476563 98.949219 L 234.335938 98.867188 L 234.238281 98.902344 L 234.246094 98.859375 L 234.246094 98.824219 L 234.542969 98.558594 L 234.726563 98.398438 L 234.785156 98.359375 L 234.8125 98.398438 L 234.980469 98.367188 L 235.28125 98.253906 L 235.371094 98.15625 L 235.417969 98.128906 L 235.449219 98.097656 L 235.488281 98.074219 L 235.558594 98.046875 L 235.632813 98.074219 L 235.683594 98.0625 L 235.726563 98.066406 L 235.890625 98.28125 L 236.289063 98.5625 L 236.832031 98.679688 L 236.980469 99.050781 L 237.128906 99.144531 L 237.292969 99.4375 L 237.683594 99.738281 L 238.113281 99.625 L 238.261719 99.691406 L 238.261719 99.726563 L 237.964844 99.710938 L 237.617188 99.910156 L 237.535156 100.074219 L 237.179688 100.46875 L 236.667969 100.757813 L 236.582031 100.894531 L 236.921875 100.917969 L 237.449219 101.371094 L 237.402344 101.609375 L 237.347656 101.6875 L 237.308594 101.722656 L 237.289063 101.785156 L 237.179688 101.902344 L 237.160156 101.941406 L 237.101563 102.09375 L 237.074219 102.222656 L 237.078125 102.382813 L 237.113281 102.570313 L 237.152344 102.679688 L 237.207031 102.808594 L 237.136719 102.898438 L 237.160156 103.085938 L 236.703125 103.785156 L 237.117188 103.921875 L 237.59375 103.894531 L 237.800781 104.007813 L 237.71875 104.28125 L 237.027344 104.800781 L 236.976563 104.875 L 236.890625 104.894531 L 236.84375 104.953125 L 236.769531 104.90625 L 236.710938 104.933594 L 236.617188 104.921875 L 236.425781 104.953125 L 236.285156 105.152344 L 235.859375 105.246094 L 235.453125 105.660156 L 235.425781 105.785156 L 235.445313 105.964844 L 235.6875 106.453125 L 235.75 106.8125 L 235.890625 106.597656 L 236.023438 106.578125 L 236.140625 106.890625 L 236.117188 107.335938 L 236.351563 107.304688 L 236.464844 107.375 L 236.511719 107.679688 L 236.726563 107.859375 L 236.804688 108.089844 L 236.816406 108.695313 L 236.824219 108.734375 L 236.8125 108.890625 L 236.910156 109.070313 L 236.8125 109.195313 L 236.714844 109.636719 L 236.910156 109.773438 L 237.496094 109.835938 L 237.929688 110.039063 L 237.917969 110.1875 L 237.988281 110.320313 L 237.742188 110.472656 L 237.460938 110.765625 L 237.855469 111.171875 L 237.902344 111.386719 L 238.40625 111.515625 L 238.78125 112.035156 L 238.707031 112.28125 L 238.527344 112.273438 L 238.277344 112.523438 L 238.105469 112.671875 L 237.792969 112.628906 L 237.351563 112.78125 L 237.089844 113.050781 L 236.890625 113.273438 L 236.617188 113.445313 L 236.453125 113.324219 L 236.402344 113.355469 L 236.523438 113.816406 L 236.800781 114.003906 L 236.667969 114.132813 L 236.726563 114.226563 L 236.644531 114.320313 L 236.519531 114.796875 L 236.941406 114.949219 L 237.160156 115.125 L 236.910156 115.449219 L 236.835938 115.679688 L 236.628906 116.007813 L 236.621094 116.464844 L 236.855469 117.511719 L 236.992188 117.664063 L 237.203125 117.730469 L 237.246094 117.792969 L 237.183594 117.910156 L 237.25 118 L 237.242188 118.21875 L 237.375 118.433594 L 237.421875 118.699219 L 237.390625 119.023438 L 237.488281 119.0625 L 237.378906 119.136719 L 237.332031 119.203125 L 237.285156 119.238281 L 237.410156 119.839844 L 237.359375 120.058594 L 237.390625 120.214844 L 237.300781 120.273438 L 237.179688 120.257813 L 237.015625 120.589844 L 236.722656 120.8125 L 236.476563 121.105469 L 236.546875 121.273438 L 236.6875 121.363281 L 236.71875 121.441406 L 236.664063 121.527344 L 237.253906 121.363281 L 237.40625 121.4375 L 237.550781 121.433594 L 237.476563 121.78125 L 237.363281 121.957031 L 237.496094 122.261719 L 237.417969 122.742188 L 237.394531 122.863281 L 237.363281 122.960938 L 236.980469 123.140625 L 236.695313 123.183594 L 236.675781 123.039063 L 236.476563 123.007813 L 236.128906 122.554688 L 235.570313 122.730469 L 235.40625 122.515625 L 235.21875 122.386719 L 235.28125 121.925781 L 235.074219 121.335938 L 234.96875 121.328125 L 234.84375 121.28125 L 234.703125 121.285156 L 234.546875 121.304688 L 234.308594 121.363281 L 233.917969 121.46875 L 233.65625 121.542969 L 233.664063 121.796875 L 233.765625 122.058594 L 233.703125 122.210938 L 233.476563 122.402344 L 233.394531 122.144531 L 233.40625 121.542969 L 233.167969 121.539063 L 232.890625 121.363281 L 232.84375 121.191406 L 232.011719 120.582031 L 231.664063 120.5 L 231.316406 120.878906 L 230.988281 120.730469 L 230.816406 120.566406 L 230.476563 120.53125 L 230.347656 120.078125 L 229.902344 119.726563 L 229.65625 119.738281 L 229.40625 120.066406 L 228.972656 120.011719 L 228.253906 120.191406 L 228.164063 120.203125 L 228.078125 120.203125 L 227.964844 120.242188 L 227.914063 120.242188 L 227.808594 120.300781 L 227.652344 120.484375 L 227.550781 120.507813 L 227.097656 120.5 L 226.683594 120.28125 L 226.160156 120.382813 L 225.980469 120.339844 L 225.949219 120.3125 L 225.839844 120.261719 L 225.734375 120.277344 L 225.710938 120.226563 L 225.621094 120.171875 L 225.53125 120.160156 L 225.292969 119.949219 L 225.015625 119.96875 L 224.859375 119.894531 L 224.546875 120.117188 L 224.375 120.460938 L 224.5 121.363281 L 224.539063 121.535156 L 224.503906 121.5625 L 224.488281 121.640625 L 224.351563 121.601563 L 224.289063 121.636719 L 224.253906 121.710938 L 224.144531 121.871094 L 224.15625 122.0625 L 224.046875 122.121094 L 224.082031 122.257813 L 223.867188 122.320313 L 223.847656 122.472656 L 223.742188 122.570313 L 223.507813 122.402344 L 223.324219 122 L 223.304688 121.777344 L 223.175781 121.648438 L 223.035156 121.691406 L 222.65625 122.214844 L 222.488281 122.242188 L 222.304688 122.179688 L 222.144531 121.828125 L 222.148438 121.597656 L 222.234375 121.363281 L 222.492188 121.105469 L 222.542969 120.929688 L 221.726563 120.679688 L 221.519531 120.546875 L 221.433594 120.371094 L 221.152344 120.632813 L 220.757813 120.648438 L 220.613281 120.652344 L 220.449219 120.601563 L 220.15625 120.871094 L 219.925781 121.207031 L 219.707031 120.988281 L 219.371094 120.773438 L 219.058594 120.71875 L 218.738281 120.5625 L 218.703125 120.535156 L 218.578125 120.417969 L 218.039063 120.1875 L 217.867188 119.941406 L 217.839844 119.902344 L 217.808594 119.875 L 217.75 119.855469 L 217.609375 119.84375 L 217.496094 119.808594 L 217.457031 119.777344 L 217.421875 119.707031 L 217.25 119.578125 L 217.226563 119.53125 L 217.160156 119.480469 L 217.03125 119.410156 L 216.714844 119.457031 L 216.253906 119.21875 L 216.109375 119.035156 L 215.828125 119.058594 L 215.785156 119.007813 L 215.746094 118.996094 L 215.550781 118.984375 L 215.484375 118.96875 L 215.46875 118.902344 L 215.390625 118.847656 L 215.339844 118.792969 L 215.289063 118.765625 L 215.242188 118.757813 L 215.1875 118.742188 L 215.054688 118.628906 L 214.847656 118.605469 L 214.558594 118.789063 L 214.390625 118.804688 L 214.09375 118.863281 L 214.03125 118.699219 L 213.871094 118.761719 L 213.46875 118.660156 L 213.257813 118.464844 L 213.035156 118.585938 L 212.808594 118.5625 L 212.75 118.519531 L 212.730469 118.378906 L 212.9375 118.210938 L 213.230469 118.269531 L 213.386719 118.238281 L 213.574219 118.097656 L 213.578125 117.894531 L 213.65625 117.730469 L 213.96875 117.511719 L 213.835938 117.289063 L 213.976563 117.039063 L 214.109375 116.90625 L 214.519531 116.855469 L 214.65625 116.777344 L 214.859375 116.5625 L 214.808594 116.496094 L 214.648438 116.480469 L 214.539063 116.339844 L 214.570313 115.949219 L 215.0625 115.695313 L 215.1875 115.964844 L 215.441406 116.089844 L 215.917969 115.867188 L 216.09375 115.882813 L 216.136719 115.773438 L 216.082031 115.542969 L 215.820313 115.363281 L 215.78125 115.246094 L 215.890625 115.09375 L 216.101563 115.074219 L 216.261719 114.984375 L 216.546875 114.601563 L 216.535156 114.449219 L 216.351563 114.199219 L 216.542969 113.898438 L 216.761719 113.683594 L 216.78125 113.386719 L 217.128906 113.152344 L 217.257813 113.15625 L 217.15625 112.976563 L 217.164063 112.890625 L 217.46875 112.816406 L 217.410156 112.429688 L 217.625 112.34375 L 217.710938 112.230469 L 218.167969 111.652344 L 218.234375 111.347656 L 218.367188 111.101563 L 218.78125 110.746094 L 218.511719 110.195313 L 218.386719 110.09375 L 217.972656 109.972656 L 217.832031 109.878906 L 217.417969 109.148438 L 216.722656 108.539063 L 216.414063 108.359375 L 216.15625 108.289063 L 216.066406 108.25 L 216.007813 108.246094 L 215.347656 107.992188 L 215.1875 107.988281 L 214.84375 108.042969 L 214.265625 107.875 L 214.117188 107.933594 L 213.855469 107.90625 L 213.621094 107.847656 L 213.5625 107.78125 L 213.425781 107.78125 L 213.320313 107.851563 L 213.175781 108.242188 L 212.9375 108.273438 L 212.546875 108.5 L 212.304688 108.507813 L 212.054688 108.402344 L 211.992188 108.3125 L 211.925781 108.253906 L 211.910156 108.199219 L 211.769531 108.085938 L 211.730469 108.027344 L 211.585938 107.988281 L 211.539063 107.957031 L 211.433594 107.882813 L 211.300781 107.742188 L 211.191406 107.527344 L 211.195313 107.324219 L 211.265625 107.304688 L 211.367188 107.371094 L 211.414063 107.296875 L 211.179688 106.78125 L 211.257813 106.671875 L 211.152344 106.644531 L 211.109375 106.53125 L 211.125 106.332031 L 210.882813 106.136719 L 210.945313 105.972656 L 211.140625 105.8125 L 211.164063 105.511719 L 211.28125 105.269531 L 211.363281 105.21875 L 211.34375 104.796875 L 211.464844 104.585938 L 211.4375 104.496094 L 211.511719 104.421875 L 211.523438 104.277344 L 211.59375 104.238281 L 211.601563 104.121094 L 211.707031 104.0625 L 211.652344 103.667969 L 211.75 103.480469 L 211.734375 103.304688 L 211.828125 103.15625 L 211.792969 102.980469 L 211.957031 102.648438 L 211.894531 102.582031 L 211.523438 102.542969 L 210.824219 102.359375 L 210.925781 102.09375 L 211.042969 101.984375 L 211.117188 101.601563 L 211.347656 101.078125 L 211.351563 100.933594 L 211.285156 100.703125 L 211.210938 100.65625 L 211.132813 100.585938 L 211.03125 100.480469 L 210.769531 100.261719 L 210.691406 100.234375 L 210.574219 100.132813 L 210.464844 100.070313 L 210.25 100.570313 L 209.972656 100.636719 L 209.808594 100.8125 L 209.449219 100.773438 L 208.234375 100.996094 L 208.007813 100.953125 L 207.746094 100.875 L 207.5625 100.890625 L 207.269531 100.789063 L 207.097656 100.730469 L 206.753906 99.917969 L 206.707031 99.632813 L 206.460938 99.519531 L 205.9375 99.441406 L 205.816406 99.394531 L 205.839844 100.003906 L 205.816406 100.082031 L 205.617188 100.625 L 205.40625 100.710938 L 205.082031 100.757813 L 204.652344 100.636719 L 204.554688 100.65625 L 204.273438 100.8125 L 204.074219 100.824219 L 203.269531 100.65625 L 203.0625 100.691406 L 202.75 100.03125 L 202.648438 100 L 202.351563 99.910156 L 202.183594 99.96875 L 202.082031 99.492188 L 202.648438 98.539063 L 202.695313 98.453125 L 202.648438 98.386719 L 202.441406 98.101563 L 202.410156 97.695313 L 202 97.792969 L 201.65625 97.769531 L 201.40625 97.527344 L 201.246094 97.457031 L 201.175781 97.246094 L 201.4375 96.960938 L 201.816406 96.886719 L 201.847656 96.554688 L 201.933594 96.460938 L 202.078125 96.441406 L 202.136719 95.855469 L 202.648438 95.703125 L 202.796875 95.660156 L 203.042969 95.339844 L 203 95.234375 L 203.046875 95.007813 L 203.101563 94.796875 L 203.117188 94.65625 L 203.113281 94.589844 L 203.0625 94.511719 L 203.1875 94.359375 L 203.628906 94.070313 L 203.953125 94.019531 L 204.183594 93.726563 L 204.128906 93.554688 L 204.234375 93.382813 L 204.578125 93.132813 L 204.84375 93.035156 L 205.132813 92.992188 L 205.421875 93.050781 L 205.980469 93.253906 L 206.109375 93.449219 L 206.246094 93.378906 L 206.296875 93.3125 L 205.996094 92.734375 L 206.167969 92.550781 L 206.175781 92.410156 L 206.230469 92.335938 L 206.3125 92.28125 L 206.382813 92.296875 L 206.902344 92.671875 L 207.269531 92.699219 L 207.398438 92.792969 L 207.4375 93.066406 L 207.625 93.152344 L 207.644531 93.296875 L 207.714844 93.371094 L 207.902344 93.386719 L 208.097656 93.492188 L 208.363281 93.359375 L 208.855469 93.410156 L 209.394531 93.292969 L 209.769531 93.453125 L 209.945313 93.667969 L 210.0625 93.613281 L 210.265625 93.652344 L 210.476563 93.550781 L 210.777344 93.613281 L 211.152344 93.585938 L 211.753906 93.675781 L 212.015625 93.792969 L 212.167969 93.925781 L 212.195313 94.175781 L 212.390625 94.238281 L 212.792969 94.203125 L 212.976563 93.949219 L 213.164063 93.84375 L 213.503906 93.914063 L 213.796875 93.71875 L 214.199219 93.867188 L 214.425781 93.8125 L 214.460938 93.738281 L 214.597656 93.699219 L 215.1875 93.734375 L 215.472656 93.734375 L 215.617188 93.636719 L 215.863281 93.742188 L 216.214844 93.578125 L 216.3125 93.660156 L 216.605469 94.351563 L 216.9375 94.328125 L 217.410156 94.472656 L 217.476563 94.488281 L 217.433594 94.652344 L 217.566406 94.65625 L 217.605469 94.640625 L 217.679688 94.636719 L 217.71875 94.65625 L 217.898438 94.722656 L 217.933594 94.757813 L 218.023438 94.789063 L 218.089844 94.875 L 218.125 94.953125 L 218.144531 95.039063 L 218.171875 95.089844 L 218.230469 95.136719 L 218.300781 95.167969 L 218.816406 95.003906 L 218.972656 94.964844 L 219.175781 94.894531 L 219.390625 94.6875 L 219.515625 94.808594 L 219.738281 94.875 L 219.882813 94.734375 L 220.144531 94.867188 L 220.535156 94.792969 L 220.757813 94.8125 L 220.859375 94.796875 L 221.113281 94.871094 L 221.152344 94.792969 L 221.320313 94.835938 L 221.535156 94.855469 L 221.699219 94.847656 L 221.761719 94.863281 L 222.128906 94.910156 L 222.289063 95.011719 L 222.378906 95.042969 L 222.53125 95.085938 L 222.578125 95.105469 L 222.601563 95.132813 L 222.882813 95.25 L 222.941406 95.296875 L 223.078125 95.4375 L 223.109375 95.503906 L 223.265625 95.652344 L 223.402344 95.699219 L 223.5 95.714844 L 223.542969 95.734375 L 223.632813 95.820313 L 223.699219 95.832031 L 223.722656 95.539063 L 223.8125 95.347656 L 224.160156 95.390625 L 224.574219 95.359375 L 224.683594 95.269531 L 224.867188 94.949219 L 225.183594 95.238281 L 225.128906 95.429688 L 225.261719 95.578125 L 225.453125 95.871094 L 225.503906 95.929688 L 225.546875 95.945313 L 225.679688 96.042969 L 225.722656 96.070313 L 225.847656 96.117188 L 225.960938 96.183594 L 226.046875 96.132813 L 226.070313 96.027344 L 226.101563 95.964844 L 226.226563 95.949219 L 226.257813 95.921875 L 226.34375 95.878906 L 226.449219 95.839844 L 226.644531 95.753906 L 226.761719 95.644531 L 226.800781 95.664063 L 226.765625 95.71875 L 226.785156 95.804688 L 227.078125 95.710938 L 227.164063 95.570313 L 227.3125 95.515625 L 227.382813 95.5 L 227.453125 95.519531 L 227.523438 95.496094 L 227.742188 95.539063 L 227.832031 95.480469 L 227.832031 95.539063 L 227.878906 95.710938 L 227.917969 95.816406 L 227.894531 95.894531 L 227.992188 96.039063 L 228.078125 96.109375 L 228.121094 96.109375 L 228.15625 96.101563 L 228.203125 96.101563 L 228.261719 96.078125 L 228.5 96.074219 L 228.617188 96.066406 L 228.753906 96.035156 L 228.835938 96 L 228.894531 95.957031 L 229.027344 95.910156 L 229.152344 95.925781 L 229.464844 95.921875 L 229.398438 95.609375 L 229.25 95.433594 L 229.367188 95.359375 L 229.703125 95.355469 L 229.722656 95.476563 L 230.121094 95.601563 L 230.648438 96.335938 L 230.570313 96.636719 L 230.3125 96.839844 L 230.292969 96.914063 L 230.378906 96.972656 L 230.574219 96.929688 L 231.050781 97.019531 L 231.148438 97.109375 L 231.257813 97.074219 L 231.300781 97.136719 L 231.378906 97.414063 L 231.308594 97.714844 L 231.34375 97.808594 L 231.527344 97.445313 L 231.597656 97.457031 L 231.695313 97.597656 L 231.820313 97.605469 L 231.882813 97.671875 L 232.109375 97.292969 L 232.230469 96.847656 L 232.226563 96.679688 L 232.277344 96.527344 L 232.246094 96.492188 L 232.585938 96.359375 Z M 232.714844 96.550781 "/>
<path style="fill-rule:evenodd;fill:rgb(0%,69.803922%,54.117647%);fill-opacity:1;stroke-width:0.75;stroke-linecap:round;stroke-linejoin:round;stroke:rgb(0%,0%,0%);stroke-opacity:1;stroke-miterlimit:10;" d="M 347 183.851563 L 347.300781 184.128906 L 347.566406 184.289063 L 348.085938 184.457031 L 348.230469 184.449219 L 348.488281 184.5625 L 348.683594 184.5625 L 348.898438 184.484375 L 349.714844 184.714844 L 350.046875 184.929688 L 350.222656 185.179688 L 350.394531 185.292969 L 350.480469 185.3125 L 350.585938 185.269531 L 350.820313 185.335938 L 350.980469 185.476563 L 351.261719 185.714844 L 351.902344 186.105469 L 351.886719 186.175781 L 351.691406 186.21875 L 351.613281 186.292969 L 351.628906 186.605469 L 351.773438 186.917969 L 352.097656 187.230469 L 352.335938 187.269531 L 352.417969 187.222656 L 352.472656 187.652344 L 352.625 187.710938 L 352.605469 187.859375 L 352.582031 188.027344 L 352.269531 188.132813 L 352.203125 188.046875 L 352 188.070313 L 351.898438 188.234375 L 351.695313 188.292969 L 351.523438 188.464844 L 351.28125 188.640625 L 351.183594 188.851563 L 351.03125 188.972656 L 350.996094 189.289063 L 350.980469 189.324219 L 350.910156 189.453125 L 350.820313 189.253906 L 350.414063 189.320313 L 350.1875 189.601563 L 350.042969 189.605469 L 349.796875 189.703125 L 349.554688 190.019531 L 349.339844 190.441406 L 349.433594 190.75 L 349.3125 190.722656 L 349.207031 190.570313 L 348.941406 190.507813 L 348.582031 190.625 L 348.386719 190.898438 L 347.996094 190.746094 L 347.460938 190.914063 L 347.171875 191.148438 L 346.871094 191.546875 L 346.625 191.875 L 346.449219 192.261719 L 346.46875 192.417969 L 346.742188 192.644531 L 346.53125 192.800781 L 346.359375 193.070313 L 346.226563 193.285156 L 345.761719 193.683594 L 345.566406 193.617188 L 345.464844 193.449219 L 344.832031 193.367188 L 344.5625 193.445313 L 344.367188 193.722656 L 344.289063 193.730469 L 344.15625 193.917969 L 343.644531 193.976563 L 343.148438 194.128906 L 342.824219 194.375 L 342.273438 194.503906 L 341.5 194.847656 L 340.621094 195.570313 L 339.984375 195.925781 L 339.832031 196.09375 L 339.675781 196.328125 L 339.621094 196.648438 L 339.414063 196.789063 L 339.273438 197.566406 L 339.257813 198.175781 L 339.359375 198.359375 L 339.164063 198.390625 L 338.820313 198.335938 L 338.699219 198.164063 L 338.496094 198.109375 L 337.675781 198.664063 L 337.613281 198.863281 L 337.433594 198.800781 L 337.273438 198.878906 L 337.15625 199.070313 L 337.019531 199.507813 L 336.949219 199.882813 L 336.957031 200.480469 L 336.980469 200.699219 L 337.011719 200.902344 L 337.019531 201 L 337.046875 201.417969 L 337.144531 201.855469 L 337.203125 202.21875 L 337.144531 202.464844 L 337 202.652344 L 336.601563 202.820313 L 336.109375 202.773438 L 336.003906 202.761719 L 335.511719 202.800781 L 335.445313 202.8125 L 335.378906 202.84375 L 335.261719 202.933594 L 335.121094 203.066406 L 335.015625 203.183594 L 334.945313 203.316406 L 334.914063 203.40625 L 334.859375 203.53125 L 334.78125 203.660156 L 334.738281 203.753906 L 334.636719 203.914063 L 334.566406 204.078125 L 334.507813 204.257813 L 334.476563 204.460938 L 334.226563 206.46875 L 334.234375 207.152344 L 334.183594 207.289063 L 334.191406 207.648438 L 334.28125 207.894531 L 334.179688 208.042969 L 334.117188 208.339844 L 333.894531 208.585938 L 333.640625 208.675781 L 333.464844 208.617188 L 333.304688 208.730469 L 333.128906 209.136719 L 333.09375 209.554688 L 332.960938 209.558594 L 332.816406 209.710938 L 332.734375 210.082031 L 332.773438 210.359375 L 332.570313 210.3125 L 332.347656 210.445313 L 332.144531 210.738281 L 332.109375 210.988281 L 332.0625 211.417969 L 331.910156 211.691406 L 331.898438 212.113281 L 331.703125 212.191406 L 331.4375 212.148438 L 331.027344 211.789063 L 330.511719 211.648438 L 330.246094 211.425781 L 330.121094 211.28125 L 330.039063 211.167969 L 329.054688 210.078125 L 328.558594 209.410156 L 328.3125 208.796875 L 327.824219 208.035156 L 327.792969 207.980469 L 327.648438 207.609375 L 326.96875 206.554688 L 326.722656 206.332031 L 326.46875 205.878906 L 326.3125 205.304688 L 326.304688 204.804688 L 326.175781 204.207031 L 326.757813 203.414063 L 326.839844 203.273438 L 327.179688 202.511719 L 327.398438 201.5 L 327.597656 200.953125 L 327.613281 200.46875 L 327.542969 200.105469 L 327.269531 199.605469 L 327.167969 199.238281 L 326.375 198.761719 L 325.71875 198.558594 L 325.183594 198.539063 L 325.109375 197.945313 L 325.109375 196.992188 L 325.160156 196.332031 L 325.269531 196.214844 L 324.980469 196.046875 L 325.253906 195.9375 L 325.714844 195.550781 L 326.210938 195.050781 L 326.652344 194.4375 L 326.574219 194.296875 L 326.519531 194.0625 L 326.398438 193.738281 L 326.609375 193.347656 L 326.632813 193.226563 L 326.898438 192.359375 L 326.695313 191.484375 L 326.613281 190.726563 L 326.449219 190.539063 L 326.378906 190.128906 L 326.769531 190.066406 L 327.144531 190.140625 L 327.714844 190.085938 L 328.367188 189.5 L 328.671875 189.054688 L 328.457031 188.730469 L 328.421875 188.515625 L 328.070313 187.90625 L 328.058594 187.859375 L 327.746094 186.886719 L 327.984375 186.851563 L 328.421875 186.640625 L 328.691406 186.710938 L 328.671875 186.859375 L 328.730469 186.984375 L 328.902344 187.085938 L 329.210938 187.054688 L 329.390625 186.972656 L 329.855469 187.035156 L 330.347656 187.789063 L 330.335938 187.859375 L 330.328125 187.925781 L 330.4375 188.035156 L 330.742188 187.890625 L 330.984375 187.945313 L 331.085938 187.910156 L 331.21875 187.859375 L 331.433594 187.636719 L 331.9375 187.554688 L 332.09375 187.441406 L 332.289063 187.40625 L 332.285156 187.324219 L 332.472656 187.328125 L 332.527344 187.390625 L 332.484375 187.441406 L 332.441406 187.460938 L 332.5 187.515625 L 332.542969 187.503906 L 332.640625 187.5 L 332.730469 187.460938 L 332.796875 187.53125 L 332.835938 187.542969 L 333 187.859375 L 333.0625 187.984375 L 333.324219 187.859375 L 333.414063 187.816406 L 333.449219 187.859375 L 333.664063 188.113281 L 334.132813 188.089844 L 334.351563 188.164063 L 334.414063 188.8125 L 334.488281 188.976563 L 334.695313 189.273438 L 334.902344 189.28125 L 334.984375 189.15625 L 335.402344 188.910156 L 335.628906 188.679688 L 336.003906 188.5625 L 336.109375 188.515625 L 336.289063 188.445313 L 336.636719 188.023438 L 336.925781 187.859375 L 337.109375 187.753906 L 337.214844 187.75 L 337.214844 187.550781 L 337.207031 187.417969 L 337.042969 187.417969 L 336.925781 187.378906 L 336.890625 187.347656 L 336.835938 187.28125 L 336.824219 187.183594 L 336.746094 187.09375 L 336.707031 187.09375 L 336.109375 187.453125 L 336.050781 187.410156 L 336.003906 187.414063 L 335.621094 187.0625 L 335.527344 186.90625 L 335.378906 186.335938 L 336.003906 186.125 L 336.109375 186.089844 L 336.355469 186.046875 L 336.625 185.917969 L 336.828125 185.914063 L 336.859375 185.941406 L 336.925781 185.953125 L 337.03125 186.015625 L 337.128906 186.015625 L 337.789063 186.074219 L 338.15625 185.992188 L 338.167969 185.917969 L 338.183594 185.796875 L 338.332031 185.730469 L 338.457031 185.664063 L 338.523438 185.644531 L 338.542969 185.683594 L 338.609375 185.554688 L 338.773438 185.480469 L 338.789063 185.480469 L 338.902344 185.4375 L 339.363281 185.300781 L 339.402344 185.117188 L 339.816406 185.246094 L 340.382813 184.847656 L 340.460938 184.667969 L 340.472656 184.570313 L 340.597656 184.519531 L 341.011719 184.46875 L 341.265625 184.160156 L 341.304688 183.984375 L 341.382813 183.988281 L 341.546875 183.980469 L 341.59375 184.046875 L 341.757813 184.226563 L 341.898438 184.300781 L 342.085938 184.460938 L 342.359375 184.570313 L 342.660156 184.605469 L 342.738281 184.554688 L 342.796875 184.636719 L 342.980469 184.746094 L 343.167969 184.707031 L 343.691406 184.585938 L 343.683594 184.394531 L 343.800781 184.253906 L 344.035156 184.066406 L 344.339844 183.992188 L 344.433594 183.824219 L 344.457031 183.929688 L 344.578125 184.246094 L 344.558594 184.371094 L 344.550781 184.558594 L 344.699219 184.613281 L 345.625 184.175781 L 345.867188 184.222656 L 345.960938 184.046875 L 346.300781 183.890625 L 346.488281 184.207031 L 346.824219 184.457031 L 346.871094 184.578125 L 346.90625 184.667969 L 347.0625 184.644531 L 347.1875 184.542969 L 347.242188 184.242188 L 347.015625 183.992188 Z M 347 183.851563 "/>
<path style="fill-rule:evenodd;fill:rgb(0%,69.803922%,54.117647%);fill-opacity:1;stroke-width:0.75;stroke-linecap:round;stroke-linejoin:round;stroke:rgb(0%,0%,0%);stroke-opacity:1;stroke-miterlimit:10;" d="M 337.792969 203.375 L 337.855469 203.460938 L 337.945313 203.421875 L 338.042969 203.476563 L 337.972656 203.546875 L 337.804688 203.476563 L 337.769531 203.503906 L 337.6875 203.441406 Z M 337.792969 203.375 "/>
<path style="fill-rule:evenodd;fill:rgb(0%,69.803922%,54.117647%);fill-opacity:1;stroke-width:0.75;stroke-linecap:round;stroke-linejoin:round;stroke:rgb(0%,0%,0%);stroke-opacity:1;stroke-miterlimit:10;" d="M 345.136719 194.289063 L 345.097656 194.347656 L 345 194.304688 L 345.054688 194.222656 Z M 345.136719 194.289063 "/>
<path style="fill-rule:evenodd;fill:rgb(0%,69.803922%,54.117647%);fill-opacity:1;stroke-width:0.75;stroke-linecap:round;stroke-linejoin:round;stroke:rgb(0%,0%,0%);stroke-opacity:1;stroke-miterlimit:10;" d="M 352.617188 187.363281 L 352.59375 187.488281 L 352.523438 187.472656 L 352.558594 187.335938 Z M 352.617188 187.363281 "/>
<path style="fill-rule:evenodd;fill:rgb(49.411765%,82.745098%,34.117647%);fill-opacity:1;stroke-width:0.75;stroke-linecap:round;stroke-linejoin:round;stroke:rgb(0%,0%,0%);stroke-opacity:1;stroke-miterlimit:10;" d="M 294.710938 69.609375 L 294.738281 69.636719 L 294.691406 69.703125 L 294.820313 69.917969 L 294.710938 69.921875 L 294.671875 69.964844 L 294.796875 70.085938 L 294.792969 70.1875 L 294.824219 70.285156 L 294.964844 70.414063 L 295.035156 70.507813 L 295.070313 70.59375 L 295.117188 70.679688 L 295.160156 70.773438 L 295.03125 70.816406 L 294.832031 71.121094 L 294.8125 71.324219 L 294.683594 71.433594 L 294.335938 71.511719 L 294.117188 71.671875 L 293.984375 71.765625 L 293.65625 71.785156 L 293.585938 71.976563 L 293.738281 72.355469 L 293.535156 72.488281 L 293.660156 72.65625 L 294.011719 72.972656 L 294.117188 73 L 294.609375 73.128906 L 294.671875 73.277344 L 294.75 73.347656 L 294.8125 73.308594 L 294.867188 73.152344 L 294.839844 72.949219 L 294.941406 72.726563 L 295.609375 73.09375 L 296.027344 72.960938 L 296.117188 72.929688 L 296.652344 73.175781 L 296.824219 73.144531 L 297.296875 73.199219 L 297.59375 73.113281 L 297.855469 73.285156 L 298.078125 73.335938 L 298.53125 73.445313 L 298.65625 73.386719 L 298.703125 73.363281 L 298.738281 73.398438 L 298.761719 73.441406 L 298.769531 73.503906 L 298.785156 73.566406 L 299.03125 73.734375 L 299.367188 73.863281 L 299.570313 73.996094 L 299.796875 74.03125 L 300.066406 74.648438 L 300.742188 74.761719 L 300.871094 74.839844 L 300.851563 74.9375 L 301.0625 75.121094 L 301.089844 75.671875 L 301.179688 76.058594 L 301.246094 76.25 L 301.183594 76.503906 L 301.058594 76.621094 L 300.824219 76.878906 L 300.753906 76.933594 L 300.671875 76.984375 L 300.519531 77.078125 L 300.460938 77.199219 L 300.464844 77.367188 L 300.492188 77.515625 L 300.496094 77.585938 L 300.429688 77.65625 L 300.390625 77.683594 L 300.242188 77.847656 L 300.285156 77.890625 L 300.300781 77.9375 L 300.359375 78.015625 L 300.355469 78.085938 L 300.394531 78.238281 L 300.402344 78.296875 L 300.613281 78.808594 L 300.398438 79.023438 L 300.144531 79.003906 L 300.019531 79.097656 L 299.738281 79.183594 L 299.492188 79.089844 L 299.492188 79.1875 L 299.457031 79.257813 L 299.464844 79.34375 L 299.433594 79.378906 L 299.351563 79.605469 L 299.472656 79.683594 L 299.570313 79.9375 L 299.574219 80.476563 L 299.511719 80.628906 L 299.601563 80.714844 L 299.652344 80.917969 L 299.796875 80.796875 L 299.980469 80.792969 L 300.082031 81.308594 L 299.984375 81.496094 L 299.679688 81.457031 L 299.359375 81.578125 L 299.15625 81.648438 L 299.042969 81.820313 L 298.859375 81.953125 L 298.65625 81.910156 L 298.46875 81.875 L 298.136719 81.949219 L 298.324219 81.726563 L 298.171875 81.589844 L 298.214844 81.472656 L 297.878906 81.234375 L 297.398438 81.210938 L 297.171875 81.289063 L 297.136719 81.40625 L 297.066406 81.414063 L 296.914063 81.5 L 296.875 81.507813 L 296.839844 81.539063 L 296.714844 81.59375 L 296.683594 81.65625 L 296.652344 81.746094 L 296.613281 81.804688 L 296.621094 81.933594 L 296.523438 81.972656 L 296.414063 82.136719 L 296.28125 82.140625 L 296.246094 82.210938 L 296.210938 82.238281 L 296.132813 82.367188 L 296.113281 82.445313 L 296.066406 82.488281 L 296.027344 82.550781 L 295.871094 82.484375 L 295.675781 82.433594 L 295.691406 82.566406 L 295.871094 83.277344 L 296.050781 83.175781 L 296.449219 83.226563 L 296.652344 83.773438 L 296.851563 83.554688 L 297.261719 82.742188 L 297.375 82.6875 L 297.519531 82.871094 L 297.800781 82.953125 L 297.796875 83.257813 L 297.964844 84.207031 L 297.757813 84.425781 L 297.757813 84.464844 L 297.738281 84.550781 L 297.792969 84.667969 L 297.796875 84.800781 L 297.898438 84.96875 L 297.921875 85.136719 L 297.566406 85.164063 L 297.472656 85.195313 L 297.300781 85.28125 L 297.265625 85.335938 L 297.289063 85.539063 L 297.289063 85.578125 L 297.269531 85.625 L 297.328125 85.890625 L 297.257813 85.902344 L 297.167969 85.878906 L 297.113281 85.882813 L 297.039063 85.878906 L 296.957031 85.894531 L 296.9375 85.84375 L 296.820313 85.769531 L 296.742188 85.683594 L 296.246094 85.804688 L 296.210938 85.828125 L 296.214844 85.867188 L 296.171875 85.921875 L 296.152344 85.957031 L 295.332031 85.828125 L 295.316406 85.609375 L 295.5625 85.234375 L 295.503906 85.09375 L 295.386719 85.101563 L 295.253906 85.398438 L 294.910156 85.734375 L 294.898438 85.867188 L 295.039063 86.003906 L 294.898438 86.054688 L 294.726563 86.039063 L 294.65625 86.019531 L 294.519531 86.011719 L 294.246094 85.773438 L 294.144531 85.828125 L 294.117188 85.886719 L 294.042969 86.046875 L 293.769531 86.074219 L 293.839844 86.289063 L 293.691406 86.335938 L 293.558594 86.210938 L 293.574219 86.019531 L 293.730469 85.789063 L 293.492188 85.53125 L 293.414063 85.632813 L 293.324219 85.71875 L 293 85.734375 L 292.894531 85.914063 L 292.660156 86.050781 L 292.566406 86 L 292.46875 85.722656 L 292.453125 85.679688 L 292.445313 85.546875 L 292.414063 85.488281 L 292.335938 85.453125 L 292.296875 85.425781 L 292.261719 85.390625 L 292.21875 85.332031 L 292.167969 85.332031 L 291.984375 85.308594 L 291.988281 84.910156 L 291.828125 84.992188 L 291.621094 85.097656 L 291.511719 85.136719 L 291.394531 85.144531 L 291.527344 84.851563 L 291.6875 84.4375 L 291.773438 83.980469 L 291.792969 83.382813 L 291.828125 83.25 L 291.886719 83.003906 L 291.828125 82.992188 L 291.375 82.886719 L 291.292969 82.84375 L 290.863281 82.410156 L 290.640625 82.269531 L 290.488281 82.246094 L 290.3125 82.351563 L 290.179688 82.28125 L 290.132813 82.332031 L 289.972656 82.703125 L 290.003906 82.988281 L 289.867188 83.390625 L 289.484375 83.578125 L 289.351563 83.84375 L 289.285156 83.769531 L 289.167969 83.710938 L 289.128906 83.714844 L 289.09375 83.753906 L 289.042969 84.042969 L 288.902344 84.105469 L 288.828125 83.878906 L 288.652344 83.679688 L 288.585938 83.40625 L 288.996094 83.121094 L 289.03125 82.925781 L 288.929688 82.839844 L 288.964844 82.785156 L 289.019531 82.632813 L 289.03125 82.535156 L 289.007813 82.484375 L 288.917969 82.535156 L 288.875 82.539063 L 288.839844 82.554688 L 288.707031 82.628906 L 288.648438 82.644531 L 288.550781 82.648438 L 288.4375 82.40625 L 288.519531 82.09375 L 288.210938 81.839844 L 288.195313 81.824219 L 287.964844 81.804688 L 287.445313 81.402344 L 287.339844 81.066406 L 287.402344 80.777344 L 287.441406 80.722656 L 287.378906 80.644531 L 287.308594 80.636719 L 287.261719 80.53125 L 287.289063 80.375 L 287.285156 80.335938 L 287.226563 80.324219 L 286.878906 80.144531 L 286.730469 80.15625 L 286.691406 79.949219 L 286.359375 79.898438 L 285.851563 79.933594 L 285.625 80.015625 L 285.535156 79.917969 L 285.457031 79.636719 L 285.082031 79.496094 L 285.039063 79.40625 L 285.117188 79.28125 L 284.9375 79.234375 L 284.890625 79.0625 L 284.574219 79.144531 L 284.40625 79.113281 L 284.234375 78.800781 L 284.230469 78.421875 L 284.050781 78.4375 L 283.996094 78.476563 L 283.953125 78.511719 L 283.917969 78.527344 L 283.84375 78.507813 L 283.570313 78.332031 L 283.492188 78.585938 L 283.339844 78.414063 L 283.171875 78.347656 L 282.847656 78.539063 L 282.519531 78.582031 L 282.257813 78.546875 L 282.414063 78.339844 L 282.6875 77.734375 L 282.5 77.703125 L 281.9375 77.316406 L 282.140625 77.09375 L 282.167969 76.851563 L 282.316406 76.492188 L 282.515625 76.378906 L 282.589844 76.09375 L 282.683594 76.097656 L 282.867188 75.824219 L 283.050781 75.292969 L 282.910156 75.210938 L 282.84375 75.007813 L 282.652344 74.96875 L 282.398438 75.339844 L 282.363281 75.503906 L 282.316406 75.519531 L 282.238281 75.574219 L 282.207031 75.621094 L 282.128906 75.777344 L 282.078125 75.8125 L 282.03125 75.8125 L 281.960938 75.894531 L 281.914063 75.910156 L 281.832031 75.894531 L 281.695313 75.898438 L 281.648438 75.886719 L 281.40625 75.644531 L 281.28125 75.554688 L 281.078125 75.945313 L 280.941406 76.046875 L 280.890625 76.242188 L 280.6875 76.371094 L 280.625 76.390625 L 280.671875 76.441406 L 280.792969 76.535156 L 280.847656 76.589844 L 280.972656 76.699219 L 280.734375 76.722656 L 280.546875 76.625 L 280.511719 76.570313 L 280.320313 76.410156 L 279.96875 76.007813 L 279.644531 75.699219 L 279.363281 75.390625 L 279.277344 75.128906 L 279.484375 75.054688 L 279.488281 74.9375 L 279.503906 74.671875 L 280.054688 74.390625 L 280.144531 74.054688 L 280.34375 73.804688 L 280.355469 73.539063 L 280.589844 73.378906 L 280.855469 73.492188 L 280.933594 73.457031 L 281.476563 73.515625 L 282.195313 73.765625 L 282.132813 74.234375 L 282.308594 74.351563 L 282.476563 74.375 L 282.628906 74.597656 L 282.972656 74.550781 L 283.074219 74.449219 L 283.390625 74.75 L 283.84375 74.636719 L 284.019531 74.667969 L 284.785156 74.515625 L 284.917969 74.4375 L 284.945313 74.234375 L 285.105469 74.039063 L 285.179688 73.984375 L 285.304688 73.988281 L 285.429688 73.804688 L 285.640625 73.667969 L 285.335938 73.3125 L 284.84375 73.226563 L 284.816406 73.078125 L 284.355469 72.757813 L 284.484375 72.488281 L 285.09375 72.488281 L 285.242188 72.304688 L 285.753906 72.304688 L 286.128906 72.15625 L 286.179688 72.035156 L 285.957031 71.960938 L 285.949219 72.011719 L 285.855469 72.085938 L 285.765625 72.128906 L 285.695313 72.148438 L 285.660156 72.175781 L 285.625 72.195313 L 285.546875 72.191406 L 285.441406 72 L 285.566406 71.785156 L 285.53125 71.6875 L 285.070313 71.621094 L 284.597656 71.4375 L 284.597656 71.355469 L 284.867188 70.980469 L 284.664063 70.988281 L 284.636719 70.753906 L 284.394531 70.792969 L 284.207031 70.746094 L 283.960938 71.027344 L 283.921875 71.300781 L 283.84375 71.394531 L 283.789063 71.417969 L 283.71875 71.511719 L 283.480469 71.648438 L 283.445313 71.679688 L 283.371094 71.746094 L 283.398438 71.960938 L 283.292969 71.921875 L 283.042969 71.859375 L 282.765625 71.847656 L 282.664063 71.792969 L 282.421875 71.789063 L 282.238281 71.820313 L 282.152344 71.769531 L 281.964844 71.679688 L 281.84375 71.621094 L 281.734375 71.597656 L 281.679688 71.507813 L 281.550781 71.40625 L 281.738281 71.21875 L 282.09375 71.261719 L 282.269531 71.222656 L 282.195313 71.054688 L 282.324219 70.179688 L 282.042969 70.0625 L 281.976563 69.984375 L 282.464844 69.359375 L 282.421875 69.292969 L 282.394531 69.171875 L 282.304688 68.996094 L 282.171875 69.0625 L 282.085938 69.175781 L 281.867188 69.042969 L 281.71875 69.027344 L 281.589844 68.929688 L 281.492188 68.84375 L 281.464844 68.71875 L 281.554688 68.582031 L 281.664063 68.476563 L 281.734375 68.339844 L 281.890625 68.113281 L 281.777344 68.007813 L 281.871094 67.855469 L 281.882813 67.8125 L 281.945313 67.769531 L 282.054688 67.679688 L 282.097656 67.664063 L 282.144531 67.628906 L 282.308594 67.613281 L 282.371094 67.566406 L 282.417969 67.671875 L 282.4375 67.707031 L 282.480469 67.742188 L 282.648438 67.773438 L 282.722656 67.851563 L 282.746094 67.929688 L 282.824219 68.027344 L 282.933594 68.101563 L 282.988281 68.097656 L 283.320313 67.890625 L 283.699219 68.027344 L 283.792969 67.914063 L 283.8125 67.851563 L 283.84375 67.8125 L 284.679688 67.601563 L 284.691406 67.375 L 284.855469 67.066406 L 284.824219 66.8125 L 284.871094 66.710938 L 284.820313 66.59375 L 284.882813 66.5 L 284.664063 66.425781 L 284.46875 66.273438 L 284.582031 66.132813 L 284.785156 66.210938 L 285.117188 66.640625 L 285.640625 66.511719 L 285.816406 66.9375 L 286.074219 67.21875 L 286.351563 67.367188 L 286.226563 67.65625 L 286.519531 68.039063 L 286.53125 68.054688 L 286.566406 68.3125 L 285.96875 69.171875 L 285.765625 69.300781 L 285.820313 69.410156 L 286.070313 69.492188 L 286.4375 69.808594 L 286.480469 69.921875 L 286.703125 70.015625 L 286.984375 70.386719 L 287.542969 70.757813 L 287.585938 70.675781 L 287.675781 70.632813 L 287.78125 70.613281 L 287.832031 70.609375 L 287.910156 70.625 L 288.09375 70.59375 L 288.277344 70.675781 L 288.421875 70.792969 L 288.65625 70.863281 L 288.964844 71.050781 L 289.148438 71.046875 L 289.273438 71.039063 L 289.429688 71.082031 L 289.652344 71.066406 L 289.816406 71.082031 L 289.949219 71.15625 L 289.964844 71.214844 L 290.070313 71.265625 L 290.441406 71.273438 L 290.554688 71.113281 L 290.652344 71.097656 L 290.894531 71.34375 L 291.175781 71.183594 L 291.292969 71.1875 L 291.347656 71.1875 L 291.425781 71.183594 L 291.636719 71.386719 L 291.777344 71.414063 L 291.828125 71.390625 L 291.898438 71.347656 L 292.003906 71.285156 L 292.214844 71.171875 L 292.890625 71.460938 L 292.945313 71.230469 L 292.882813 70.800781 L 292.59375 70.441406 L 292.316406 70.214844 L 292.347656 69.96875 L 292.882813 69.65625 L 293.09375 69.683594 L 293.140625 69.671875 L 293.21875 69.679688 L 293.351563 69.667969 L 293.457031 69.734375 L 293.75 69.796875 L 293.890625 69.78125 L 293.972656 69.75 L 294.054688 69.730469 L 294.117188 69.722656 L 294.207031 69.714844 L 294.261719 69.722656 L 294.308594 69.710938 L 294.359375 69.6875 L 294.425781 69.691406 L 294.496094 69.675781 L 294.632813 69.636719 L 294.691406 69.621094 Z M 288.683594 77.542969 L 288.574219 78.03125 L 288.4375 78.082031 L 288.316406 78.289063 L 288.390625 78.4375 L 288.3125 78.566406 L 288.339844 78.703125 L 288.285156 78.867188 L 288.132813 78.925781 L 288.082031 78.96875 L 287.996094 79.078125 L 288.070313 79.152344 L 288.238281 79.140625 L 288.292969 79.171875 L 288.449219 79.324219 L 288.273438 79.378906 L 288.347656 79.480469 L 288.5 79.496094 L 288.570313 79.550781 L 288.625 79.578125 L 288.820313 79.644531 L 288.847656 79.816406 L 288.894531 79.917969 L 289.195313 79.976563 L 289.28125 80.097656 L 289.515625 80.21875 L 289.746094 80.191406 L 289.75 80.234375 L 289.816406 80.351563 L 289.851563 80.453125 L 289.875 80.550781 L 289.898438 80.589844 L 289.941406 80.632813 L 290.039063 80.796875 L 290.03125 80.902344 L 289.929688 80.96875 L 290.019531 81 L 290.09375 81.085938 L 290.246094 81.09375 L 290.308594 81.085938 L 290.398438 81.105469 L 290.488281 81.085938 L 290.542969 81.109375 L 290.664063 81.136719 L 290.722656 81.164063 L 291.144531 81.179688 L 291.292969 80.933594 L 291.484375 80.855469 L 291.738281 80.882813 L 291.828125 80.917969 L 292.207031 81.058594 L 292.378906 80.925781 L 292.464844 80.996094 L 292.527344 81.226563 L 292.800781 81.527344 L 293.203125 81.558594 L 293.324219 81.597656 L 293.632813 81.503906 L 293.921875 81.492188 L 294.117188 81.570313 L 294.324219 81.652344 L 294.558594 81.539063 L 294.660156 81.640625 L 294.644531 81.835938 L 294.878906 81.828125 L 295.308594 81.59375 L 295.304688 81.386719 L 295.195313 81.09375 L 295.195313 80.597656 L 294.96875 80.515625 L 294.867188 80.53125 L 294.644531 81 L 294.28125 80.972656 L 294.117188 81.011719 L 294.039063 80.96875 L 293.996094 80.804688 L 293.742188 80.476563 L 293.453125 80.273438 L 293.421875 80.195313 L 293.445313 79.984375 L 293.5625 79.804688 L 293.8125 79.835938 L 294.117188 79.519531 L 294.152344 79.484375 L 294.238281 79.226563 L 294.355469 79.082031 L 294.351563 78.878906 L 294.464844 78.546875 L 294.445313 78.46875 L 294.347656 78.457031 L 294.117188 78.652344 L 293.8125 78.753906 L 293.742188 78.574219 L 293.566406 78.375 L 293.542969 78.242188 L 293.300781 78.285156 L 293.074219 78.253906 L 292.886719 78.375 L 292.691406 78.382813 L 292.527344 78.3125 L 292.441406 78.1875 L 292.152344 78.167969 L 291.933594 78.003906 L 291.828125 78.007813 L 291.679688 78.011719 L 291.453125 77.875 L 291.292969 77.886719 L 290.839844 77.609375 L 289.855469 77.640625 L 289.210938 77.675781 L 288.890625 77.816406 Z M 288.683594 77.542969 "/>
</g>
</svg>
