<svg xmlns="http://www.w3.org/2000/svg" xmlns:xlink="http://www.w3.org/1999/xlink" width="700" height="432" version="1.1" viewBox="0 0 525 324"><g id="surface31"><path style="fill-rule:evenodd;fill:#7e8fc7;fill-opacity:1;stroke-width:.75;stroke-linecap:round;stroke-linejoin:round;stroke:#000;stroke-opacity:1;stroke-miterlimit:10" d="M 187.679688 183.3125 L 209.058594 170.882813 L 230.433594 183.3125 L 230.433594 208.417969 L 209.058594 221.089844 L 187.679688 208.417969 Z M 187.679688 183.3125"/><path style="fill-rule:evenodd;fill:#b28955;fill-opacity:1;stroke-width:.75;stroke-linecap:round;stroke-linejoin:round;stroke:#000;stroke-opacity:1;stroke-miterlimit:10" d="M 230.433594 109.949219 L 251.8125 98.007813 L 273.1875 109.949219 L 273.1875 134.078125 L 251.8125 146.261719 L 230.433594 134.078125 Z M 230.433594 109.949219"/><path style="fill-rule:evenodd;fill:#c87a8a;fill-opacity:1;stroke-width:.75;stroke-linecap:round;stroke-linejoin:round;stroke:#000;stroke-opacity:1;stroke-miterlimit:10" d="M 144.929688 39.546875 L 166.304688 28.105469 L 187.679688 39.546875 L 187.679688 62.683594 L 166.304688 74.375 L 144.929688 62.683594 Z M 144.929688 39.546875"/><path style="fill-rule:evenodd;fill:#00a0ae;fill-opacity:1;stroke-width:.75;stroke-linecap:round;stroke-linejoin:round;stroke:#000;stroke-opacity:1;stroke-miterlimit:10" d="M 358.695313 109.949219 L 380.070313 98.007813 L 401.449219 109.949219 L 401.449219 134.078125 L 380.070313 146.261719 L 358.695313 134.078125 Z M 358.695313 109.949219"/><path style="fill-rule:evenodd;fill:#ba7bb8;fill-opacity:1;stroke-width:.75;stroke-linecap:round;stroke-linejoin:round;stroke:#000;stroke-opacity:1;stroke-miterlimit:10" d="M 380.070313 221.089844 L 401.449219 208.417969 L 422.824219 221.089844 L 422.824219 246.671875 L 401.449219 259.582031 L 380.070313 246.671875 Z M 380.070313 221.089844"/><path style="fill-rule:evenodd;fill:#c87a8a;fill-opacity:1;stroke-width:.75;stroke-linecap:round;stroke-linejoin:round;stroke:#000;stroke-opacity:1;stroke-miterlimit:10" d="M 187.679688 39.546875 L 209.058594 28.105469 L 230.433594 39.546875 L 230.433594 62.683594 L 209.058594 74.375 L 187.679688 62.683594 Z M 187.679688 39.546875"/><path style="fill-rule:evenodd;fill:#30a37c;fill-opacity:1;stroke-width:.75;stroke-linecap:round;stroke-linejoin:round;stroke:#000;stroke-opacity:1;stroke-miterlimit:10" d="M 166.304688 74.375 L 187.679688 62.683594 L 209.058594 74.375 L 209.058594 98.007813 L 187.679688 109.949219 L 166.304688 98.007813 Z M 166.304688 74.375"/><path style="fill-rule:evenodd;fill:#30a37c;fill-opacity:1;stroke-width:.75;stroke-linecap:round;stroke-linejoin:round;stroke:#000;stroke-opacity:1;stroke-miterlimit:10" d="M 209.058594 146.261719 L 230.433594 134.078125 L 251.8125 146.261719 L 251.8125 170.882813 L 230.433594 183.3125 L 209.058594 170.882813 Z M 209.058594 146.261719"/><path style="fill-rule:evenodd;fill:#00a0ae;fill-opacity:1;stroke-width:.75;stroke-linecap:round;stroke-linejoin:round;stroke:#000;stroke-opacity:1;stroke-miterlimit:10" d="M 294.566406 74.375 L 315.941406 62.683594 L 337.320313 74.375 L 337.320313 98.007813 L 315.941406 109.949219 L 294.566406 98.007813 Z M 294.566406 74.375"/><path style="fill-rule:evenodd;fill:#00a0ae;fill-opacity:1;stroke-width:.75;stroke-linecap:round;stroke-linejoin:round;stroke:#000;stroke-opacity:1;stroke-miterlimit:10" d="M 273.1875 109.949219 L 294.566406 98.007813 L 315.941406 109.949219 L 315.941406 134.078125 L 294.566406 146.261719 L 273.1875 134.078125 Z M 273.1875 109.949219"/><path style="fill-rule:evenodd;fill:#30a37c;fill-opacity:1;stroke-width:.75;stroke-linecap:round;stroke-linejoin:round;stroke:#000;stroke-opacity:1;stroke-miterlimit:10" d="M 166.304688 146.261719 L 187.679688 134.078125 L 209.058594 146.261719 L 209.058594 170.882813 L 187.679688 183.3125 L 166.304688 170.882813 Z M 166.304688 146.261719"/><path style="fill-rule:evenodd;fill:#c87a8a;fill-opacity:1;stroke-width:.75;stroke-linecap:round;stroke-linejoin:round;stroke:#000;stroke-opacity:1;stroke-miterlimit:10" d="M 102.175781 39.546875 L 123.550781 28.105469 L 144.929688 39.546875 L 144.929688 62.683594 L 123.550781 74.375 L 102.175781 62.683594 Z M 102.175781 39.546875"/><path style="fill-rule:evenodd;fill:#82994c;fill-opacity:1;stroke-width:.75;stroke-linecap:round;stroke-linejoin:round;stroke:#000;stroke-opacity:1;stroke-miterlimit:10" d="M 187.679688 109.949219 L 209.058594 98.007813 L 230.433594 109.949219 L 230.433594 134.078125 L 209.058594 146.261719 L 187.679688 134.078125 Z M 187.679688 109.949219"/><path style="fill-rule:evenodd;fill:#7e8fc7;fill-opacity:1;stroke-width:.75;stroke-linecap:round;stroke-linejoin:round;stroke:#000;stroke-opacity:1;stroke-miterlimit:10" d="M 251.8125 146.261719 L 273.1875 134.078125 L 294.566406 146.261719 L 294.566406 170.882813 L 273.1875 183.3125 L 251.8125 170.882813 Z M 251.8125 146.261719"/><path style="fill-rule:evenodd;fill:#b28955;fill-opacity:1;stroke-width:.75;stroke-linecap:round;stroke-linejoin:round;stroke:#000;stroke-opacity:1;stroke-miterlimit:10" d="M 251.8125 74.375 L 273.1875 62.683594 L 294.566406 74.375 L 294.566406 98.007813 L 273.1875 109.949219 L 251.8125 98.007813 Z M 251.8125 74.375"/><path style="fill-rule:evenodd;fill:#b28955;fill-opacity:1;stroke-width:.75;stroke-linecap:round;stroke-linejoin:round;stroke:#000;stroke-opacity:1;stroke-miterlimit:10" d="M 230.433594 39.546875 L 251.8125 28.105469 L 273.1875 39.546875 L 273.1875 62.683594 L 251.8125 74.375 L 230.433594 62.683594 Z M 230.433594 39.546875"/><path style="fill-rule:evenodd;fill:#b28955;fill-opacity:1;stroke-width:.75;stroke-linecap:round;stroke-linejoin:round;stroke:#000;stroke-opacity:1;stroke-miterlimit:10" d="M 209.058594 74.375 L 230.433594 62.683594 L 251.8125 74.375 L 251.8125 98.007813 L 230.433594 109.949219 L 209.058594 98.007813 Z M 209.058594 74.375"/><path style="fill-rule:evenodd;fill:#7e8fc7;fill-opacity:1;stroke-width:.75;stroke-linecap:round;stroke-linejoin:round;stroke:#000;stroke-opacity:1;stroke-miterlimit:10" d="M 187.679688 259.582031 L 209.058594 246.671875 L 230.433594 259.582031 L 230.433594 285.632813 L 209.058594 298.773438 L 187.679688 285.632813 Z M 187.679688 259.582031"/><path style="fill-rule:evenodd;fill:#7e8fc7;fill-opacity:1;stroke-width:.75;stroke-linecap:round;stroke-linejoin:round;stroke:#000;stroke-opacity:1;stroke-miterlimit:10" d="M 230.433594 259.582031 L 251.8125 246.671875 L 273.1875 259.582031 L 273.1875 285.632813 L 251.8125 298.773438 L 230.433594 285.632813 Z M 230.433594 259.582031"/></g></svg>