<?xml version="1.0" encoding="UTF-8"?>
<svg xmlns="http://www.w3.org/2000/svg" xmlns:xlink="http://www.w3.org/1999/xlink" width="525pt" height="324pt" viewBox="0 0 525 324" version="1.1">
<g id="surface36">
<path style="fill-rule:evenodd;fill:rgb(78.431373%,47.843137%,54.117647%);fill-opacity:1;stroke-width:0.75;stroke-linecap:round;stroke-linejoin:round;stroke:rgb(0%,0%,0%);stroke-opacity:1;stroke-miterlimit:10;" d="M 270.078125 243.800781 L 254.921875 234.753906 L 254.921875 216.769531 L 270.078125 207.828125 L 285.234375 216.769531 L 285.234375 234.753906 Z M 270.078125 243.800781 "/>
<path style="fill-rule:evenodd;fill:rgb(78.431373%,47.843137%,54.117647%);fill-opacity:1;stroke-width:0.75;stroke-linecap:round;stroke-linejoin:round;stroke:rgb(0%,0%,0%);stroke-opacity:1;stroke-miterlimit:10;" d="M 179.140625 243.800781 L 163.984375 234.753906 L 163.984375 216.769531 L 179.140625 207.828125 L 194.296875 216.769531 L 194.296875 234.753906 Z M 179.140625 243.800781 "/>
<path style="fill-rule:evenodd;fill:rgb(78.431373%,47.843137%,54.117647%);fill-opacity:1;stroke-width:0.75;stroke-linecap:round;stroke-linejoin:round;stroke:rgb(0%,0%,0%);stroke-opacity:1;stroke-miterlimit:10;" d="M 224.609375 216.769531 L 209.453125 207.828125 L 209.453125 190.050781 L 224.609375 181.210938 L 239.765625 190.050781 L 239.765625 207.828125 Z M 224.609375 216.769531 "/>
<path style="fill-rule:evenodd;fill:rgb(78.431373%,47.843137%,54.117647%);fill-opacity:1;stroke-width:0.75;stroke-linecap:round;stroke-linejoin:round;stroke:rgb(0%,0%,0%);stroke-opacity:1;stroke-miterlimit:10;" d="M 239.765625 243.800781 L 224.609375 234.753906 L 224.609375 216.769531 L 239.765625 207.828125 L 254.921875 216.769531 L 254.921875 234.753906 Z M 239.765625 243.800781 "/>
<path style="fill-rule:evenodd;fill:rgb(78.431373%,47.843137%,54.117647%);fill-opacity:1;stroke-width:0.75;stroke-linecap:round;stroke-linejoin:round;stroke:rgb(0%,0%,0%);stroke-opacity:1;stroke-miterlimit:10;" d="M 163.984375 216.769531 L 148.828125 207.828125 L 148.828125 190.050781 L 163.984375 181.210938 L 179.140625 190.050781 L 179.140625 207.828125 Z M 163.984375 216.769531 "/>
<path style="fill-rule:evenodd;fill:rgb(78.431373%,47.843137%,54.117647%);fill-opacity:1;stroke-width:0.75;stroke-linecap:round;stroke-linejoin:round;stroke:rgb(0%,0%,0%);stroke-opacity:1;stroke-miterlimit:10;" d="M 254.921875 216.769531 L 239.765625 207.828125 L 239.765625 190.050781 L 254.921875 181.210938 L 270.078125 190.050781 L 270.078125 207.828125 Z M 254.921875 216.769531 "/>
<path style="fill-rule:evenodd;fill:rgb(78.431373%,47.843137%,54.117647%);fill-opacity:1;stroke-width:0.75;stroke-linecap:round;stroke-linejoin:round;stroke:rgb(0%,0%,0%);stroke-opacity:1;stroke-miterlimit:10;" d="M 209.453125 243.800781 L 194.296875 234.753906 L 194.296875 216.769531 L 209.453125 207.828125 L 224.609375 216.769531 L 224.609375 234.753906 Z M 209.453125 243.800781 "/>
<path style="fill-rule:evenodd;fill:rgb(78.431373%,47.843137%,54.117647%);fill-opacity:1;stroke-width:0.75;stroke-linecap:round;stroke-linejoin:round;stroke:rgb(0%,0%,0%);stroke-opacity:1;stroke-miterlimit:10;" d="M 194.296875 216.769531 L 179.140625 207.828125 L 179.140625 190.050781 L 194.296875 181.210938 L 209.453125 190.050781 L 209.453125 207.828125 Z M 194.296875 216.769531 "/>
<path style="fill-rule:evenodd;fill:rgb(76.470588%,49.803922%,46.27451%);fill-opacity:1;stroke-width:0.75;stroke-linecap:round;stroke-linejoin:round;stroke:rgb(0%,0%,0%);stroke-opacity:1;stroke-miterlimit:10;" d="M 330.703125 86.292969 L 315.546875 77.875 L 315.546875 61.144531 L 330.703125 52.832031 L 345.859375 61.144531 L 345.859375 77.875 Z M 330.703125 86.292969 "/>
<path style="fill-rule:evenodd;fill:rgb(76.470588%,49.803922%,46.27451%);fill-opacity:1;stroke-width:0.75;stroke-linecap:round;stroke-linejoin:round;stroke:rgb(0%,0%,0%);stroke-opacity:1;stroke-miterlimit:10;" d="M 300.390625 137.542969 L 285.234375 128.914063 L 285.234375 111.761719 L 300.390625 103.238281 L 315.546875 111.761719 L 315.546875 128.914063 Z M 300.390625 137.542969 "/>
<path style="fill-rule:evenodd;fill:rgb(76.470588%,49.803922%,46.27451%);fill-opacity:1;stroke-width:0.75;stroke-linecap:round;stroke-linejoin:round;stroke:rgb(0%,0%,0%);stroke-opacity:1;stroke-miterlimit:10;" d="M 315.546875 111.761719 L 300.390625 103.238281 L 300.390625 86.292969 L 315.546875 77.875 L 330.703125 86.292969 L 330.703125 103.238281 Z M 315.546875 111.761719 "/>
<path style="fill-rule:evenodd;fill:rgb(73.333333%,52.156863%,38.431373%);fill-opacity:1;stroke-width:0.75;stroke-linecap:round;stroke-linejoin:round;stroke:rgb(0%,0%,0%);stroke-opacity:1;stroke-miterlimit:10;" d="M 194.296875 61.144531 L 179.140625 52.832031 L 179.140625 36.3125 L 194.296875 28.105469 L 209.453125 36.3125 L 209.453125 52.832031 Z M 194.296875 61.144531 "/>
<path style="fill-rule:evenodd;fill:rgb(68.235294%,54.509804%,31.372549%);fill-opacity:1;stroke-width:0.75;stroke-linecap:round;stroke-linejoin:round;stroke:rgb(0%,0%,0%);stroke-opacity:1;stroke-miterlimit:10;" d="M 406.484375 163.640625 L 391.328125 154.90625 L 391.328125 137.542969 L 406.484375 128.914063 L 421.640625 137.542969 L 421.640625 154.90625 Z M 406.484375 163.640625 "/>
<path style="fill-rule:evenodd;fill:rgb(61.960784%,56.862745%,27.45098%);fill-opacity:1;stroke-width:0.75;stroke-linecap:round;stroke-linejoin:round;stroke:rgb(0%,0%,0%);stroke-opacity:1;stroke-miterlimit:10;" d="M 391.328125 298.773438 L 376.171875 289.527344 L 376.171875 271.136719 L 391.328125 261.988281 L 406.484375 271.136719 L 406.484375 289.527344 Z M 391.328125 298.773438 "/>
<path style="fill-rule:evenodd;fill:rgb(61.960784%,56.862745%,27.45098%);fill-opacity:1;stroke-width:0.75;stroke-linecap:round;stroke-linejoin:round;stroke:rgb(0%,0%,0%);stroke-opacity:1;stroke-miterlimit:10;" d="M 361.015625 298.773438 L 345.859375 289.527344 L 345.859375 271.136719 L 361.015625 261.988281 L 376.171875 271.136719 L 376.171875 289.527344 Z M 361.015625 298.773438 "/>
<path style="fill-rule:evenodd;fill:rgb(54.509804%,59.215686%,28.235294%);fill-opacity:1;stroke-width:0.75;stroke-linecap:round;stroke-linejoin:round;stroke:rgb(0%,0%,0%);stroke-opacity:1;stroke-miterlimit:10;" d="M 224.609375 61.144531 L 209.453125 52.832031 L 209.453125 36.3125 L 224.609375 28.105469 L 239.765625 36.3125 L 239.765625 52.832031 Z M 224.609375 61.144531 "/>
<path style="fill-rule:evenodd;fill:rgb(45.490196%,61.176471%,32.54902%);fill-opacity:1;stroke-width:0.75;stroke-linecap:round;stroke-linejoin:round;stroke:rgb(0%,0%,0%);stroke-opacity:1;stroke-miterlimit:10;" d="M 224.609375 163.640625 L 209.453125 154.90625 L 209.453125 137.542969 L 224.609375 128.914063 L 239.765625 137.542969 L 239.765625 154.90625 Z M 224.609375 163.640625 "/>
<path style="fill-rule:evenodd;fill:rgb(45.490196%,61.176471%,32.54902%);fill-opacity:1;stroke-width:0.75;stroke-linecap:round;stroke-linejoin:round;stroke:rgb(0%,0%,0%);stroke-opacity:1;stroke-miterlimit:10;" d="M 239.765625 86.292969 L 224.609375 77.875 L 224.609375 61.144531 L 239.765625 52.832031 L 254.921875 61.144531 L 254.921875 77.875 Z M 239.765625 86.292969 "/>
<path style="fill-rule:evenodd;fill:rgb(45.490196%,61.176471%,32.54902%);fill-opacity:1;stroke-width:0.75;stroke-linecap:round;stroke-linejoin:round;stroke:rgb(0%,0%,0%);stroke-opacity:1;stroke-miterlimit:10;" d="M 179.140625 86.292969 L 163.984375 77.875 L 163.984375 61.144531 L 179.140625 52.832031 L 194.296875 61.144531 L 194.296875 77.875 Z M 179.140625 86.292969 "/>
<path style="fill-rule:evenodd;fill:rgb(45.490196%,61.176471%,32.54902%);fill-opacity:1;stroke-width:0.75;stroke-linecap:round;stroke-linejoin:round;stroke:rgb(0%,0%,0%);stroke-opacity:1;stroke-miterlimit:10;" d="M 209.453125 86.292969 L 194.296875 77.875 L 194.296875 61.144531 L 209.453125 52.832031 L 224.609375 61.144531 L 224.609375 77.875 Z M 209.453125 86.292969 "/>
<path style="fill-rule:evenodd;fill:rgb(45.490196%,61.176471%,32.54902%);fill-opacity:1;stroke-width:0.75;stroke-linecap:round;stroke-linejoin:round;stroke:rgb(0%,0%,0%);stroke-opacity:1;stroke-miterlimit:10;" d="M 209.453125 137.542969 L 194.296875 128.914063 L 194.296875 111.761719 L 209.453125 103.238281 L 224.609375 111.761719 L 224.609375 128.914063 Z M 209.453125 137.542969 "/>
<path style="fill-rule:evenodd;fill:rgb(45.490196%,61.176471%,32.54902%);fill-opacity:1;stroke-width:0.75;stroke-linecap:round;stroke-linejoin:round;stroke:rgb(0%,0%,0%);stroke-opacity:1;stroke-miterlimit:10;" d="M 239.765625 137.542969 L 224.609375 128.914063 L 224.609375 111.761719 L 239.765625 103.238281 L 254.921875 111.761719 L 254.921875 128.914063 Z M 239.765625 137.542969 "/>
<path style="fill-rule:evenodd;fill:rgb(45.490196%,61.176471%,32.54902%);fill-opacity:1;stroke-width:0.75;stroke-linecap:round;stroke-linejoin:round;stroke:rgb(0%,0%,0%);stroke-opacity:1;stroke-miterlimit:10;" d="M 254.921875 111.761719 L 239.765625 103.238281 L 239.765625 86.292969 L 254.921875 77.875 L 270.078125 86.292969 L 270.078125 103.238281 Z M 254.921875 111.761719 "/>
<path style="fill-rule:evenodd;fill:rgb(45.490196%,61.176471%,32.54902%);fill-opacity:1;stroke-width:0.75;stroke-linecap:round;stroke-linejoin:round;stroke:rgb(0%,0%,0%);stroke-opacity:1;stroke-miterlimit:10;" d="M 224.609375 111.761719 L 209.453125 103.238281 L 209.453125 86.292969 L 224.609375 77.875 L 239.765625 86.292969 L 239.765625 103.238281 Z M 224.609375 111.761719 "/>
<path style="fill-rule:evenodd;fill:rgb(45.490196%,61.176471%,32.54902%);fill-opacity:1;stroke-width:0.75;stroke-linecap:round;stroke-linejoin:round;stroke:rgb(0%,0%,0%);stroke-opacity:1;stroke-miterlimit:10;" d="M 194.296875 111.761719 L 179.140625 103.238281 L 179.140625 86.292969 L 194.296875 77.875 L 209.453125 86.292969 L 209.453125 103.238281 Z M 194.296875 111.761719 "/>
<path style="fill-rule:evenodd;fill:rgb(34.509804%,62.745098%,39.607843%);fill-opacity:1;stroke-width:0.75;stroke-linecap:round;stroke-linejoin:round;stroke:rgb(0%,0%,0%);stroke-opacity:1;stroke-miterlimit:10;" d="M 270.078125 190.050781 L 254.921875 181.210938 L 254.921875 163.640625 L 270.078125 154.90625 L 285.234375 163.640625 L 285.234375 181.210938 Z M 270.078125 190.050781 "/>
<path style="fill-rule:evenodd;fill:rgb(34.509804%,62.745098%,39.607843%);fill-opacity:1;stroke-width:0.75;stroke-linecap:round;stroke-linejoin:round;stroke:rgb(0%,0%,0%);stroke-opacity:1;stroke-miterlimit:10;" d="M 209.453125 190.050781 L 194.296875 181.210938 L 194.296875 163.640625 L 209.453125 154.90625 L 224.609375 163.640625 L 224.609375 181.210938 Z M 209.453125 190.050781 "/>
<path style="fill-rule:evenodd;fill:rgb(34.509804%,62.745098%,39.607843%);fill-opacity:1;stroke-width:0.75;stroke-linecap:round;stroke-linejoin:round;stroke:rgb(0%,0%,0%);stroke-opacity:1;stroke-miterlimit:10;" d="M 285.234375 163.640625 L 270.078125 154.90625 L 270.078125 137.542969 L 285.234375 128.914063 L 300.390625 137.542969 L 300.390625 154.90625 Z M 285.234375 163.640625 "/>
<path style="fill-rule:evenodd;fill:rgb(34.509804%,62.745098%,39.607843%);fill-opacity:1;stroke-width:0.75;stroke-linecap:round;stroke-linejoin:round;stroke:rgb(0%,0%,0%);stroke-opacity:1;stroke-miterlimit:10;" d="M 270.078125 137.542969 L 254.921875 128.914063 L 254.921875 111.761719 L 270.078125 103.238281 L 285.234375 111.761719 L 285.234375 128.914063 Z M 270.078125 137.542969 "/>
<path style="fill-rule:evenodd;fill:rgb(34.509804%,62.745098%,39.607843%);fill-opacity:1;stroke-width:0.75;stroke-linecap:round;stroke-linejoin:round;stroke:rgb(0%,0%,0%);stroke-opacity:1;stroke-miterlimit:10;" d="M 239.765625 190.050781 L 224.609375 181.210938 L 224.609375 163.640625 L 239.765625 154.90625 L 254.921875 163.640625 L 254.921875 181.210938 Z M 239.765625 190.050781 "/>
<path style="fill-rule:evenodd;fill:rgb(21.176471%,63.529412%,47.45098%);fill-opacity:1;stroke-width:0.75;stroke-linecap:round;stroke-linejoin:round;stroke:rgb(0%,0%,0%);stroke-opacity:1;stroke-miterlimit:10;" d="M 376.171875 111.761719 L 361.015625 103.238281 L 361.015625 86.292969 L 376.171875 77.875 L 391.328125 86.292969 L 391.328125 103.238281 Z M 376.171875 111.761719 "/>
<path style="fill-rule:evenodd;fill:rgb(21.176471%,63.529412%,47.45098%);fill-opacity:1;stroke-width:0.75;stroke-linecap:round;stroke-linejoin:round;stroke:rgb(0%,0%,0%);stroke-opacity:1;stroke-miterlimit:10;" d="M 391.328125 86.292969 L 376.171875 77.875 L 376.171875 61.144531 L 391.328125 52.832031 L 406.484375 61.144531 L 406.484375 77.875 Z M 391.328125 86.292969 "/>
<path style="fill-rule:evenodd;fill:rgb(21.176471%,63.529412%,47.45098%);fill-opacity:1;stroke-width:0.75;stroke-linecap:round;stroke-linejoin:round;stroke:rgb(0%,0%,0%);stroke-opacity:1;stroke-miterlimit:10;" d="M 361.015625 86.292969 L 345.859375 77.875 L 345.859375 61.144531 L 361.015625 52.832031 L 376.171875 61.144531 L 376.171875 77.875 Z M 361.015625 86.292969 "/>
<path style="fill-rule:evenodd;fill:rgb(21.176471%,63.529412%,47.45098%);fill-opacity:1;stroke-width:0.75;stroke-linecap:round;stroke-linejoin:round;stroke:rgb(0%,0%,0%);stroke-opacity:1;stroke-miterlimit:10;" d="M 345.859375 111.761719 L 330.703125 103.238281 L 330.703125 86.292969 L 345.859375 77.875 L 361.015625 86.292969 L 361.015625 103.238281 Z M 345.859375 111.761719 "/>
<path style="fill-rule:evenodd;fill:rgb(0%,63.921569%,55.294118%);fill-opacity:1;stroke-width:0.75;stroke-linecap:round;stroke-linejoin:round;stroke:rgb(0%,0%,0%);stroke-opacity:1;stroke-miterlimit:10;" d="M 300.390625 190.050781 L 285.234375 181.210938 L 285.234375 163.640625 L 300.390625 154.90625 L 315.546875 163.640625 L 315.546875 181.210938 Z M 300.390625 190.050781 "/>
<path style="fill-rule:evenodd;fill:rgb(0%,63.921569%,55.294118%);fill-opacity:1;stroke-width:0.75;stroke-linecap:round;stroke-linejoin:round;stroke:rgb(0%,0%,0%);stroke-opacity:1;stroke-miterlimit:10;" d="M 330.703125 137.542969 L 315.546875 128.914063 L 315.546875 111.761719 L 330.703125 103.238281 L 345.859375 111.761719 L 345.859375 128.914063 Z M 330.703125 137.542969 "/>
<path style="fill-rule:evenodd;fill:rgb(0%,63.921569%,55.294118%);fill-opacity:1;stroke-width:0.75;stroke-linecap:round;stroke-linejoin:round;stroke:rgb(0%,0%,0%);stroke-opacity:1;stroke-miterlimit:10;" d="M 315.546875 163.640625 L 300.390625 154.90625 L 300.390625 137.542969 L 315.546875 128.914063 L 330.703125 137.542969 L 330.703125 154.90625 Z M 315.546875 163.640625 "/>
<path style="fill-rule:evenodd;fill:rgb(0%,63.529412%,62.745098%);fill-opacity:1;stroke-width:0.75;stroke-linecap:round;stroke-linejoin:round;stroke:rgb(0%,0%,0%);stroke-opacity:1;stroke-miterlimit:10;" d="M 179.140625 190.050781 L 163.984375 181.210938 L 163.984375 163.640625 L 179.140625 154.90625 L 194.296875 163.640625 L 194.296875 181.210938 Z M 179.140625 190.050781 "/>
<path style="fill-rule:evenodd;fill:rgb(0%,63.529412%,62.745098%);fill-opacity:1;stroke-width:0.75;stroke-linecap:round;stroke-linejoin:round;stroke:rgb(0%,0%,0%);stroke-opacity:1;stroke-miterlimit:10;" d="M 194.296875 163.640625 L 179.140625 154.90625 L 179.140625 137.542969 L 194.296875 128.914063 L 209.453125 137.542969 L 209.453125 154.90625 Z M 194.296875 163.640625 "/>
<path style="fill-rule:evenodd;fill:rgb(5.490196%,62.352941%,69.019608%);fill-opacity:1;stroke-width:0.75;stroke-linecap:round;stroke-linejoin:round;stroke:rgb(0%,0%,0%);stroke-opacity:1;stroke-miterlimit:10;" d="M 133.671875 61.144531 L 118.515625 52.832031 L 118.515625 36.3125 L 133.671875 28.105469 L 148.828125 36.3125 L 148.828125 52.832031 Z M 133.671875 61.144531 "/>
<path style="fill-rule:evenodd;fill:rgb(5.490196%,62.352941%,69.019608%);fill-opacity:1;stroke-width:0.75;stroke-linecap:round;stroke-linejoin:round;stroke:rgb(0%,0%,0%);stroke-opacity:1;stroke-miterlimit:10;" d="M 163.984375 61.144531 L 148.828125 52.832031 L 148.828125 36.3125 L 163.984375 28.105469 L 179.140625 36.3125 L 179.140625 52.832031 Z M 163.984375 61.144531 "/>
<path style="fill-rule:evenodd;fill:rgb(5.490196%,62.352941%,69.019608%);fill-opacity:1;stroke-width:0.75;stroke-linecap:round;stroke-linejoin:round;stroke:rgb(0%,0%,0%);stroke-opacity:1;stroke-miterlimit:10;" d="M 148.828125 86.292969 L 133.671875 77.875 L 133.671875 61.144531 L 148.828125 52.832031 L 163.984375 61.144531 L 163.984375 77.875 Z M 148.828125 86.292969 "/>
<path style="fill-rule:evenodd;fill:rgb(5.490196%,62.352941%,69.019608%);fill-opacity:1;stroke-width:0.75;stroke-linecap:round;stroke-linejoin:round;stroke:rgb(0%,0%,0%);stroke-opacity:1;stroke-miterlimit:10;" d="M 118.515625 86.292969 L 103.359375 77.875 L 103.359375 61.144531 L 118.515625 52.832031 L 133.671875 61.144531 L 133.671875 77.875 Z M 118.515625 86.292969 "/>
<path style="fill-rule:evenodd;fill:rgb(27.45098%,60.392157%,73.72549%);fill-opacity:1;stroke-width:0.75;stroke-linecap:round;stroke-linejoin:round;stroke:rgb(0%,0%,0%);stroke-opacity:1;stroke-miterlimit:10;" d="M 254.921875 163.640625 L 239.765625 154.90625 L 239.765625 137.542969 L 254.921875 128.914063 L 270.078125 137.542969 L 270.078125 154.90625 Z M 254.921875 163.640625 "/>
<path style="fill-rule:evenodd;fill:rgb(41.960784%,57.647059%,76.862745%);fill-opacity:1;stroke-width:0.75;stroke-linecap:round;stroke-linejoin:round;stroke:rgb(0%,0%,0%);stroke-opacity:1;stroke-miterlimit:10;" d="M 285.234375 216.769531 L 270.078125 207.828125 L 270.078125 190.050781 L 285.234375 181.210938 L 300.390625 190.050781 L 300.390625 207.828125 Z M 285.234375 216.769531 "/>
<path style="fill-rule:evenodd;fill:rgb(54.117647%,54.509804%,78.039216%);fill-opacity:1;stroke-width:0.75;stroke-linecap:round;stroke-linejoin:round;stroke:rgb(0%,0%,0%);stroke-opacity:1;stroke-miterlimit:10;" d="M 300.390625 86.292969 L 285.234375 77.875 L 285.234375 61.144531 L 300.390625 52.832031 L 315.546875 61.144531 L 315.546875 77.875 Z M 300.390625 86.292969 "/>
<path style="fill-rule:evenodd;fill:rgb(63.921569%,51.372549%,76.862745%);fill-opacity:1;stroke-width:0.75;stroke-linecap:round;stroke-linejoin:round;stroke:rgb(0%,0%,0%);stroke-opacity:1;stroke-miterlimit:10;" d="M 270.078125 86.292969 L 254.921875 77.875 L 254.921875 61.144531 L 270.078125 52.832031 L 285.234375 61.144531 L 285.234375 77.875 Z M 270.078125 86.292969 "/>
<path style="fill-rule:evenodd;fill:rgb(63.921569%,51.372549%,76.862745%);fill-opacity:1;stroke-width:0.75;stroke-linecap:round;stroke-linejoin:round;stroke:rgb(0%,0%,0%);stroke-opacity:1;stroke-miterlimit:10;" d="M 285.234375 61.144531 L 270.078125 52.832031 L 270.078125 36.3125 L 285.234375 28.105469 L 300.390625 36.3125 L 300.390625 52.832031 Z M 285.234375 61.144531 "/>
<path style="fill-rule:evenodd;fill:rgb(63.921569%,51.372549%,76.862745%);fill-opacity:1;stroke-width:0.75;stroke-linecap:round;stroke-linejoin:round;stroke:rgb(0%,0%,0%);stroke-opacity:1;stroke-miterlimit:10;" d="M 254.921875 61.144531 L 239.765625 52.832031 L 239.765625 36.3125 L 254.921875 28.105469 L 270.078125 36.3125 L 270.078125 52.832031 Z M 254.921875 61.144531 "/>
<path style="fill-rule:evenodd;fill:rgb(71.372549%,49.019608%,73.72549%);fill-opacity:1;stroke-width:0.75;stroke-linecap:round;stroke-linejoin:round;stroke:rgb(0%,0%,0%);stroke-opacity:1;stroke-miterlimit:10;" d="M 285.234375 111.761719 L 270.078125 103.238281 L 270.078125 86.292969 L 285.234375 77.875 L 300.390625 86.292969 L 300.390625 103.238281 Z M 285.234375 111.761719 "/>
<path style="fill-rule:evenodd;fill:rgb(76.078431%,47.45098%,68.627451%);fill-opacity:1;stroke-width:0.75;stroke-linecap:round;stroke-linejoin:round;stroke:rgb(0%,0%,0%);stroke-opacity:1;stroke-miterlimit:10;" d="M 209.453125 298.773438 L 194.296875 289.527344 L 194.296875 271.136719 L 209.453125 261.988281 L 224.609375 271.136719 L 224.609375 289.527344 Z M 209.453125 298.773438 "/>
<path style="fill-rule:evenodd;fill:rgb(78.039216%,47.058824%,61.960784%);fill-opacity:1;stroke-width:0.75;stroke-linecap:round;stroke-linejoin:round;stroke:rgb(0%,0%,0%);stroke-opacity:1;stroke-miterlimit:10;" d="M 270.078125 298.773438 L 254.921875 289.527344 L 254.921875 271.136719 L 270.078125 261.988281 L 285.234375 271.136719 L 285.234375 289.527344 Z M 270.078125 298.773438 "/>
</g>
</svg>
