<svg xmlns="http://www.w3.org/2000/svg" xmlns:xlink="http://www.w3.org/1999/xlink" width="700" height="432" version="1.1" viewBox="0 0 525 324"><g id="surface16"><path style="fill-rule:evenodd;fill:#4b0055;fill-opacity:1;stroke-width:.75;stroke-linecap:round;stroke-linejoin:round;stroke:#fff;stroke-opacity:1;stroke-miterlimit:10" d="M 323.078125 112.074219 L 321.171875 120.316406 L 302.925781 129.824219 L 297.996094 126.5625 L 284.390625 136.71875 L 250.476563 142 L 243.449219 147.394531 L 230.683594 139.320313 L 213.960938 142.261719 L 208.828125 141.695313 L 199.644531 151.339844 L 181.34375 152.015625 L 174.378906 141.460938 L 179.597656 132.738281 L 173.9375 131.644531 L 160.582031 112.277344 L 168.613281 99.4375 L 213.960938 97.3125 L 241.507813 91.328125 L 252.730469 98.949219 L 269.488281 98.957031 L 282.117188 105.339844 Z M 323.078125 112.074219"/><path style="fill-rule:evenodd;fill:#4b0055;fill-opacity:1;stroke-width:.75;stroke-linecap:round;stroke-linejoin:round;stroke:#fff;stroke-opacity:1;stroke-miterlimit:10" d="M 406.394531 115.414063 L 399.480469 123.554688 L 389.945313 124.683594 L 390.1875 133.777344 L 375.875 132.050781 L 361.816406 142.3125 L 358.078125 148.832031 L 360.492188 153.457031 L 364.242188 160.636719 L 354.507813 164.214844 L 354.640625 161.464844 L 352.644531 161.464844 L 351.671875 164.414063 L 349.5 164.84375 L 344.359375 161.464844 L 340.757813 153.457031 L 339.019531 149.585938 L 328.375 141.453125 L 309.304688 143.167969 L 302.925781 129.824219 L 321.171875 120.316406 L 323.078125 112.074219 L 363.015625 104.648438 L 367.433594 108.328125 L 379.660156 102.898438 Z M 406.394531 115.414063"/><path style="fill-rule:evenodd;fill:#4b0055;fill-opacity:1;stroke-width:.75;stroke-linecap:round;stroke-linejoin:round;stroke:#fff;stroke-opacity:1;stroke-miterlimit:10" d="M 181.34375 152.015625 L 169.921875 171.132813 L 165.855469 186 L 180.253906 188.464844 L 181.484375 190.960938 L 185.738281 199.574219 L 183.789063 207.257813 L 181.808594 209.023438 L 172.515625 217.296875 L 171.4375 230.828125 L 160.808594 230.679688 L 158.277344 238.488281 L 145.042969 242.847656 L 125.535156 236.628906 L 106.078125 243.425781 L 99.136719 243.621094 L 97.222656 234.691406 L 102.851563 225.285156 L 97.058594 215.542969 L 71.960938 224.136719 L 56.339844 239.128906 L 56.164063 221.21875 L 60.886719 209.023438 L 58.394531 205.296875 L 61.125 197.40625 L 58.054688 190.960938 L 64.703125 170.957031 L 47.671875 181.152344 L 47.210938 169.921875 L 48.855469 164.648438 L 38.839844 161.464844 L 39.644531 153.457031 L 32.777344 145.777344 L 39.617188 130.503906 L 56.515625 118.882813 L 92.207031 113.738281 L 91.089844 102.914063 L 94.507813 97.480469 L 114.609375 83.261719 L 127.667969 83.515625 L 142.222656 85.15625 L 154.660156 96.152344 L 168.613281 99.4375 L 160.582031 112.277344 L 173.9375 131.644531 L 179.597656 132.738281 L 174.378906 141.460938 Z M 181.34375 152.015625"/><path style="fill-rule:evenodd;fill:#fde333;fill-opacity:1;stroke-width:.75;stroke-linecap:round;stroke-linejoin:round;stroke:#fff;stroke-opacity:1;stroke-miterlimit:10" d="M 451.308594 187.574219 L 471.355469 196.171875 L 479.136719 199.511719 L 491.15625 209.023438 L 492.222656 215.082031 L 486.472656 227.773438 L 485.898438 231.25 L 473.820313 233.304688 L 471.355469 229.003906 L 466.710938 220.902344 L 455.636719 217.058594 L 447.304688 218.953125 L 445.570313 221.3125 L 441.277344 227.152344 L 429.554688 221.207031 L 421.089844 226.535156 L 410.140625 212.863281 L 411.867188 190.960938 L 410.316406 183.707031 L 412.125 176.863281 L 414.152344 175.410156 L 424.492188 175.140625 L 429.265625 176.863281 L 433.433594 178.371094 L 437.996094 187.296875 L 441.277344 187.367188 L 445.570313 187.457031 Z M 451.308594 187.574219"/></g></svg>