<?xml version="1.0" encoding="UTF-8"?>
<svg xmlns="http://www.w3.org/2000/svg" xmlns:xlink="http://www.w3.org/1999/xlink" width="525pt" height="324pt" viewBox="0 0 525 324" version="1.1">
<g id="surface61">
<path style="fill-rule:evenodd;fill:rgb(88.627451%,98.823529%,100%);fill-opacity:1;stroke-width:0.75;stroke-linecap:round;stroke-linejoin:round;stroke:rgb(0%,0%,0%);stroke-opacity:1;stroke-miterlimit:10;" d="M 385.132813 145.195313 L 384.375 145.445313 L 383.867188 146.550781 L 383.234375 146.375 L 382.734375 146.574219 L 381.8125 147.921875 L 380.855469 150.089844 L 380.207031 150.621094 L 378.648438 152.507813 L 378.109375 152.914063 L 377.261719 154.46875 L 376.09375 155.152344 L 375.914063 155.398438 L 375.789063 155.652344 L 375.722656 155.726563 L 375.535156 156.203125 L 375.324219 156.835938 L 375.308594 156.980469 L 375.265625 157.09375 L 375.148438 157.601563 L 375.078125 157.726563 L 375.027344 157.945313 L 374.777344 158.355469 L 374.613281 159.242188 L 374.621094 160.542969 L 374.035156 162.734375 L 373.464844 163.457031 L 373.183594 164.554688 L 373.179688 166.148438 L 372.558594 167.199219 L 372.460938 167.710938 L 371.757813 168.394531 L 371.515625 169.148438 L 371.621094 169.855469 L 371.121094 170.375 L 370.996094 171.078125 L 370.613281 171.292969 L 370.449219 171.59375 L 370.621094 174.347656 L 370.289063 174.695313 L 370.183594 175.101563 L 369.535156 175.277344 L 369.082031 175.054688 L 368.535156 175.0625 L 367.984375 175.449219 L 366.78125 177.640625 L 366.523438 177.703125 L 366.027344 177.523438 L 365.492188 178.074219 L 365.246094 178.632813 L 364.867188 179.03125 L 364.777344 180.296875 L 365.207031 181.027344 L 364.96875 181.734375 L 364.574219 182.082031 L 363.660156 182.140625 L 362.671875 183.1875 L 361.851563 183.765625 L 361.621094 184.363281 L 361.523438 186.089844 L 360.367188 186.871094 L 359.308594 187.085938 L 359.042969 187.792969 L 358.496094 188.140625 L 358.476563 188.46875 L 358.675781 188.71875 L 358.265625 189.070313 L 357.652344 189.277344 L 356.683594 189.242188 L 355.886719 189.664063 L 354.992188 189.839844 L 354.496094 189.761719 L 354.015625 189.230469 L 350.886719 184.871094 L 349.125 183.125 L 347.589844 182.152344 L 345.730469 181.683594 L 345.601563 181.679688 L 345.023438 181.65625 L 342.988281 182.742188 L 341.746094 183.746094 L 340.417969 182.601563 L 339.296875 181.984375 L 338.59375 182.21875 L 338.320313 182.527344 L 337.6875 182.777344 L 336.457031 182.804688 L 335.976563 183.175781 L 334.902344 183.285156 L 334.445313 183.386719 L 334.167969 183.644531 L 333.761719 184.234375 L 332.460938 186.105469 L 332.128906 186.992188 L 332.078125 187.65625 L 331.289063 189.472656 L 329.867188 191.132813 L 329.28125 191.464844 L 328.519531 191.628906 L 327.78125 192.003906 L 326.859375 192.476563 L 325.710938 192.332031 L 323.796875 192.632813 L 323.027344 192.5625 L 321.574219 191.253906 L 320.953125 190.972656 L 319.769531 191.035156 L 318.976563 191.613281 L 318.367188 191.359375 L 316.921875 189.523438 L 315.6875 188.367188 L 315.199219 187.972656 L 314.992188 187.871094 L 314.785156 187.792969 L 314.59375 187.773438 L 314.355469 187.839844 L 313.496094 187.984375 L 311.898438 188.683594 L 311.605469 188.558594 L 311.082031 188.332031 L 310.226563 188.4375 L 309.492188 188.140625 L 309.3125 188.308594 L 308.820313 188.089844 L 306.769531 188.171875 L 303.640625 187.835938 L 303.214844 186.785156 L 303.304688 185.773438 L 303.015625 185.3125 L 305.589844 183.804688 L 306.617188 182.792969 L 308.3125 182.304688 L 308.605469 182.0625 L 309.0625 181.445313 L 308.996094 181.273438 L 308.894531 180.316406 L 308.695313 180.136719 L 308.433594 179.535156 L 308.28125 179.25 L 308.285156 179.078125 L 308.054688 178.871094 L 307.894531 178.777344 L 307.71875 178.75 L 307.558594 178.671875 L 307.335938 178.1875 L 306.847656 177.542969 L 306.867188 176.617188 L 306.726563 176.332031 L 307.09375 176.808594 L 307.527344 176.835938 L 308.234375 176.253906 L 308.902344 175.949219 L 309.035156 175.324219 L 308.914063 174.746094 L 309.144531 174.289063 L 309.40625 174.007813 L 309.9375 173.796875 L 311.140625 173.667969 L 311.417969 173.328125 L 311.390625 172.988281 L 311.605469 172.738281 L 311.886719 172.40625 L 311.808594 171.320313 L 311.605469 170.625 L 311.550781 170.445313 L 311.007813 169.960938 L 310.714844 169.921875 L 310.644531 169.378906 L 310.34375 169.164063 L 310.28125 168.367188 L 309.761719 167.222656 L 309.6875 166.125 L 309.339844 165.019531 L 309.417969 164.082031 L 309.03125 163.085938 L 309.214844 162.914063 L 309.820313 163.082031 L 310.441406 164.179688 L 310.828125 164.28125 L 311.5 164.464844 L 311.605469 164.433594 L 312.261719 164.246094 L 313.414063 164.226563 L 313.429688 163.6875 L 313.730469 163.148438 L 313.566406 162.523438 L 313.9375 161.789063 L 314.363281 161.351563 L 314.53125 160.148438 L 316.316406 159.378906 L 316.726563 158.351563 L 317.132813 157.925781 L 317.15625 156.9375 L 317.523438 155.808594 L 317.453125 155.050781 L 317.855469 154.28125 L 317.738281 154.046875 L 318.261719 153.710938 L 318.5 152.496094 L 318.769531 151.957031 L 319.121094 151.75 L 319.613281 151.808594 L 319.863281 151.6875 L 320.429688 151.84375 L 320.667969 152.253906 L 321.777344 152.792969 L 322.621094 152.902344 L 322.839844 154.046875 L 323.742188 155.335938 L 324.664063 155.226563 L 325.152344 154.679688 L 325.464844 154.980469 L 325.945313 154.910156 L 326.179688 155.03125 L 326.484375 155.429688 L 327.363281 155.921875 L 327.78125 155.976563 L 327.945313 155.996094 L 328.558594 155.992188 L 328.878906 156.308594 L 329.121094 156.339844 L 329.160156 156.234375 L 329.183594 155.617188 L 329.257813 155.183594 L 328.808594 154.535156 L 328.746094 153.777344 L 329.007813 152.628906 L 328.859375 151.609375 L 328.992188 150.628906 L 329.589844 149.539063 L 329.433594 149.03125 L 329.609375 148.539063 L 329.484375 148.117188 L 329.535156 147.511719 L 330.347656 147.265625 L 330.464844 145.972656 L 330.078125 145.214844 L 330.160156 144.371094 L 330.535156 143.835938 L 331.941406 142.742188 L 332.46875 142.140625 L 333.59375 141.515625 L 333.761719 141.082031 L 333.953125 140.585938 L 334.3125 140.191406 L 335.921875 139.261719 L 337.042969 138.179688 L 337.640625 137.820313 L 339.097656 137.800781 L 339.457031 137.675781 L 340.097656 137.277344 L 339.9375 136.769531 L 340.035156 136.519531 L 340.167969 136.058594 L 341.375 135.980469 L 342.285156 135.628906 L 342.671875 134.992188 L 343.367188 135.710938 L 344.285156 135.136719 L 345.378906 135.238281 L 345.5 135.054688 L 345.425781 134.160156 L 345.601563 133.667969 L 345.671875 133.460938 L 344.777344 132.761719 L 345.007813 132.203125 L 344.742188 131.316406 L 344.96875 130.324219 L 344.582031 129.125 L 343.917969 128.542969 L 343.738281 127.621094 L 344.640625 127.859375 L 345.308594 128.367188 L 345.601563 128.210938 L 346.191406 127.894531 L 346.554688 128.242188 L 347.796875 128.3125 L 348.195313 127.457031 L 347.644531 126.546875 L 347.628906 125.851563 L 347.425781 125.371094 L 347.304688 124.746094 L 347.464844 123.335938 L 347.925781 122.34375 L 348.3125 122.253906 L 348.328125 121.355469 L 349.035156 119.714844 L 349.4375 119.382813 L 349.933594 117.855469 L 349.121094 116.796875 L 348.605469 115.480469 L 349.253906 113.96875 L 348.910156 112.09375 L 349.015625 110.914063 L 349.386719 110.390625 L 350.589844 110.605469 L 351.054688 110.035156 L 351.460938 109.5 L 353.726563 108.21875 L 354.886719 109.042969 L 355.652344 110.0625 L 356.078125 109.882813 L 356.496094 109.902344 L 356.875 109.539063 L 358.246094 109.332031 L 359.050781 110.074219 L 359.179688 110.597656 L 359.628906 110.890625 L 362.015625 110.6875 L 362.480469 111.089844 L 363.773438 111.492188 L 364.652344 110.820313 L 365.011719 110.949219 L 365.253906 110.792969 L 365.347656 110.75 L 365.65625 111.105469 L 366.015625 111.179688 L 366.402344 111.503906 L 366.25 112.023438 L 365.613281 112.601563 L 365.296875 113.304688 L 365.089844 114.476563 L 365.148438 115.074219 L 364.574219 117.824219 L 365.183594 121.023438 L 364.570313 121.945313 L 364.375 122.960938 L 364.410156 124.769531 L 365.410156 126.882813 L 365.664063 126.800781 L 365.777344 126.90625 L 366.28125 128.546875 L 366.9375 129.488281 L 367.410156 129.792969 L 367.582031 130.722656 L 369.5625 133.609375 L 369.847656 134.058594 L 372.042969 137.363281 L 372.679688 138.082031 L 373.253906 139.355469 L 373.429688 139.757813 L 375.40625 141.214844 L 375.253906 139.980469 L 376.09375 139.9375 L 376.988281 140.292969 L 379.3125 140.589844 L 381.058594 142.066406 L 382.882813 143.273438 L 383.179688 143.441406 L 384.082031 144.273438 L 384.546875 144.703125 Z M 385.132813 145.195313 "/>
<path style="fill-rule:evenodd;fill:rgb(88.627451%,98.823529%,100%);fill-opacity:1;stroke-width:0.75;stroke-linecap:round;stroke-linejoin:round;stroke:rgb(0%,0%,0%);stroke-opacity:1;stroke-miterlimit:10;" d="M 308.875 243.210938 L 308.734375 243.464844 L 308.507813 243.285156 L 308.804688 243.125 Z M 308.875 243.210938 "/>
<path style="fill-rule:evenodd;fill:rgb(39.607843%,50.980392%,61.568627%);fill-opacity:1;stroke-width:0.75;stroke-linecap:round;stroke-linejoin:round;stroke:rgb(0%,0%,0%);stroke-opacity:1;stroke-miterlimit:10;" d="M 346.441406 100.746094 L 347.449219 101.566406 L 348.046875 101.820313 L 348.195313 101.914063 L 348.503906 102.226563 L 348.6875 102.285156 L 348.785156 102.375 L 348.890625 103.320313 L 349.851563 105.113281 L 350.914063 105.953125 L 351.25 106.636719 L 351.714844 107.082031 L 353.726563 108.21875 L 351.460938 109.5 L 351.054688 110.035156 L 350.589844 110.605469 L 349.386719 110.390625 L 349.015625 110.914063 L 348.910156 112.09375 L 349.253906 113.96875 L 348.605469 115.480469 L 349.121094 116.796875 L 349.933594 117.855469 L 349.4375 119.382813 L 349.035156 119.714844 L 348.328125 121.355469 L 348.3125 122.253906 L 347.925781 122.34375 L 347.464844 123.335938 L 347.304688 124.746094 L 347.425781 125.371094 L 347.628906 125.851563 L 347.644531 126.546875 L 348.195313 127.457031 L 347.796875 128.3125 L 346.554688 128.242188 L 346.191406 127.894531 L 345.601563 128.210938 L 345.308594 128.367188 L 344.640625 127.859375 L 343.738281 127.621094 L 343.917969 128.542969 L 344.582031 129.125 L 344.96875 130.324219 L 344.742188 131.316406 L 345.007813 132.203125 L 344.777344 132.761719 L 345.671875 133.460938 L 345.601563 133.667969 L 345.425781 134.160156 L 345.5 135.054688 L 345.378906 135.238281 L 344.285156 135.136719 L 343.367188 135.710938 L 342.671875 134.992188 L 342.285156 135.628906 L 341.375 135.980469 L 340.167969 136.058594 L 340.035156 136.519531 L 339.9375 136.769531 L 340.097656 137.277344 L 339.457031 137.675781 L 339.097656 137.800781 L 337.640625 137.820313 L 337.042969 138.179688 L 335.921875 139.261719 L 334.3125 140.191406 L 333.953125 140.585938 L 333.761719 141.082031 L 333.59375 141.515625 L 332.46875 142.140625 L 331.941406 142.742188 L 330.535156 143.835938 L 330.160156 144.371094 L 330.078125 145.214844 L 330.464844 145.972656 L 330.347656 147.265625 L 329.535156 147.511719 L 329.484375 148.117188 L 329.609375 148.539063 L 329.433594 149.03125 L 329.589844 149.539063 L 328.992188 150.628906 L 328.859375 151.609375 L 329.007813 152.628906 L 328.746094 153.777344 L 328.808594 154.535156 L 329.257813 155.183594 L 329.183594 155.617188 L 329.160156 156.234375 L 329.121094 156.339844 L 328.878906 156.308594 L 328.558594 155.992188 L 327.945313 155.996094 L 327.78125 155.976563 L 327.363281 155.921875 L 326.484375 155.429688 L 326.179688 155.03125 L 325.945313 154.910156 L 325.464844 154.980469 L 325.152344 154.679688 L 324.664063 155.226563 L 323.742188 155.335938 L 322.839844 154.046875 L 322.621094 152.902344 L 321.777344 152.792969 L 320.667969 152.253906 L 320.429688 151.84375 L 319.863281 151.6875 L 319.613281 151.808594 L 319.121094 151.75 L 318.769531 151.957031 L 318.5 152.496094 L 318.261719 153.710938 L 317.738281 154.046875 L 317.855469 154.28125 L 317.453125 155.050781 L 317.523438 155.808594 L 317.15625 156.9375 L 317.132813 157.925781 L 316.726563 158.351563 L 316.316406 159.378906 L 314.53125 160.148438 L 314.363281 161.351563 L 313.9375 161.789063 L 313.566406 162.523438 L 313.730469 163.148438 L 313.429688 163.6875 L 313.414063 164.226563 L 312.261719 164.246094 L 311.605469 164.433594 L 311.5 164.464844 L 310.828125 164.28125 L 310.441406 164.179688 L 309.820313 163.082031 L 309.214844 162.914063 L 309.03125 163.085938 L 309.417969 164.082031 L 309.339844 165.019531 L 309.6875 166.125 L 309.761719 167.222656 L 310.28125 168.367188 L 310.34375 169.164063 L 310.644531 169.378906 L 310.714844 169.921875 L 311.007813 169.960938 L 311.550781 170.445313 L 311.605469 170.625 L 311.808594 171.320313 L 311.886719 172.40625 L 311.605469 172.738281 L 311.390625 172.988281 L 311.417969 173.328125 L 311.140625 173.667969 L 309.9375 173.796875 L 309.40625 174.007813 L 309.144531 174.289063 L 308.914063 174.746094 L 309.035156 175.324219 L 308.902344 175.949219 L 308.234375 176.253906 L 307.527344 176.835938 L 307.09375 176.808594 L 306.726563 176.332031 L 306.867188 176.617188 L 306.847656 177.542969 L 307.335938 178.1875 L 307.558594 178.671875 L 307.71875 178.75 L 307.894531 178.777344 L 308.054688 178.871094 L 308.285156 179.078125 L 308.28125 179.25 L 308.433594 179.535156 L 308.695313 180.136719 L 308.894531 180.316406 L 308.996094 181.273438 L 309.0625 181.445313 L 308.605469 182.0625 L 308.3125 182.304688 L 306.617188 182.792969 L 305.589844 183.804688 L 303.015625 185.3125 L 303.304688 185.773438 L 303.214844 186.785156 L 303.640625 187.835938 L 302.742188 188.210938 L 302.058594 188.09375 L 301.574219 188.226563 L 300.472656 187.902344 L 299.683594 187.898438 L 299.113281 188.1875 L 298.253906 187.839844 L 297.949219 187.886719 L 297.070313 187.585938 L 295.820313 188 L 294.058594 188.722656 L 293.296875 188.46875 L 292.238281 188.6875 L 291.59375 189.296875 L 290.796875 190.304688 L 289.546875 190.570313 L 289.097656 190.894531 L 288.757813 190.847656 L 288.476563 191.15625 L 288.277344 191.105469 L 287.777344 191.679688 L 286.535156 191.652344 L 285.617188 191.582031 L 285.152344 191.730469 L 284.535156 191.511719 L 282.726563 189.921875 L 282.035156 189.667969 L 281.382813 189.835938 L 280.691406 190.292969 L 279.800781 190.007813 L 279.042969 189.644531 L 277.917969 188.316406 L 276.855469 188.472656 L 275.960938 188.417969 L 274.75 188.179688 L 273.753906 189.234375 L 272.863281 189.3125 L 272.351563 189.039063 L 271.605469 189.089844 L 271.171875 189.347656 L 270.84375 189.96875 L 270.621094 189.824219 L 270.554688 189.320313 L 269.953125 188.785156 L 269.570313 188.726563 L 268.933594 189.3125 L 268.363281 188.71875 L 268.144531 186.890625 L 268.957031 185.191406 L 268.734375 184.703125 L 268.789063 184.257813 L 267.945313 183.679688 L 267.644531 183.066406 L 267.414063 182.988281 L 267.324219 182.339844 L 266.308594 181.621094 L 266.300781 181.28125 L 265.617188 180.683594 L 264.851563 180.542969 L 263.925781 180.945313 L 263.746094 180.949219 L 263.296875 180.957031 L 262.988281 180.804688 L 262.253906 179.925781 L 260.710938 179.792969 L 260.476563 179.445313 L 260.355469 179.078125 L 260.039063 178.820313 L 257.910156 178.226563 L 256.75 178.234375 L 256.234375 178.308594 L 255.238281 177.65625 L 254.382813 177.351563 L 253.945313 177.425781 L 253.59375 177.226563 L 253.339844 176.675781 L 252.886719 176.28125 L 251.253906 175.351563 L 250.894531 174.773438 L 250.800781 174.105469 L 250.125 174.242188 L 249.03125 174.117188 L 248.703125 174.082031 L 247.25 173.738281 L 245.761719 172.15625 L 244.59375 171.40625 L 244.113281 169.976563 L 243.679688 169.660156 L 243.414063 169.601563 L 243.132813 169.441406 L 242.933594 169.390625 L 242.5625 169.25 L 242.390625 169.277344 L 242.324219 169.441406 L 242.097656 169.636719 L 241.441406 169.800781 L 241.574219 168.972656 L 241.488281 168.765625 L 241.449219 168.089844 L 241.429688 167.96875 L 241.335938 167.816406 L 241.074219 167.246094 L 240.988281 167.003906 L 240.960938 166.640625 L 240.890625 166.273438 L 240.878906 165.9375 L 240.621094 162.582031 L 240.410156 161.972656 L 239.4375 160.367188 L 239.222656 159.882813 L 239.121094 159.539063 L 239.046875 159.46875 L 238.984375 159.246094 L 238.675781 158.476563 L 238.445313 158.230469 L 238.78125 157.773438 L 240.234375 157.15625 L 241.832031 155.390625 L 242.324219 155.128906 L 242.191406 153.640625 L 241.984375 153.058594 L 242.769531 152.386719 L 243.386719 150.484375 L 243.457031 149.484375 L 243.257813 148.4375 L 243.394531 147.929688 L 243.996094 147.660156 L 244.960938 146.742188 L 246.789063 147.011719 L 247.453125 147.464844 L 247.769531 147.308594 L 248.402344 146.039063 L 249.03125 145.351563 L 249.386719 144.964844 L 250.601563 144.253906 L 250.917969 143.492188 L 251.617188 143.265625 L 253.289063 143.308594 L 254.410156 143.082031 L 255.285156 143.375 L 256.214844 143.355469 L 257.234375 144.292969 L 257.707031 144.320313 L 258.875 144.933594 L 260.40625 144.953125 L 261.078125 144.949219 L 261.78125 144.570313 L 262.695313 144.351563 L 263.746094 144.335938 L 263.996094 144.332031 L 264.835938 144.445313 L 265.261719 143.671875 L 265.738281 143.292969 L 265.691406 142.632813 L 266.132813 142.042969 L 266.585938 140.871094 L 266.980469 139.914063 L 266.679688 139.542969 L 267.5625 138.941406 L 267.8125 138.195313 L 267.574219 137.914063 L 267.820313 137.464844 L 268.019531 137.285156 L 268.351563 137.347656 L 268.542969 138.15625 L 270.09375 137.589844 L 270.953125 137.445313 L 272.710938 135.890625 L 273.453125 135.480469 L 274.097656 135.425781 L 275.601563 134.882813 L 276.539063 134.71875 L 277.980469 133.488281 L 278.425781 133.378906 L 278.941406 132.992188 L 280.179688 132.171875 L 280.480469 131.632813 L 281.515625 131.046875 L 281.460938 130.082031 L 283.09375 128.664063 L 284.457031 129.707031 L 285.511719 129.945313 L 286.535156 131.214844 L 286.882813 131.621094 L 287.089844 131.566406 L 287.578125 131.910156 L 288.917969 132.277344 L 290 132.257813 L 290.707031 132.011719 L 291.210938 131.496094 L 291.859375 131.5 L 292.628906 131.105469 L 294.492188 130.664063 L 294.832031 130.160156 L 295 129.484375 L 296.304688 127.703125 L 296.457031 127.171875 L 297.972656 127.230469 L 298.976563 126.828125 L 300.632813 126.816406 L 301.289063 126.949219 L 302.597656 128.070313 L 302.867188 128.371094 L 303.566406 128.949219 L 304.300781 129.285156 L 305.148438 129.476563 L 305.652344 130.074219 L 305.929688 130.089844 L 307.464844 129.359375 L 307.9375 128.601563 L 308.265625 128.707031 L 308.679688 128.601563 L 309.414063 129.078125 L 310.191406 129.296875 L 310.84375 129.59375 L 311.605469 129.640625 L 311.824219 129.652344 L 311.851563 129.371094 L 311.570313 128.90625 L 311.96875 128.382813 L 311.953125 127.5 L 315.765625 125.460938 L 316.707031 124.617188 L 316.871094 124.363281 L 316.945313 124.285156 L 316.292969 124.117188 L 316.050781 123.882813 L 315.871094 122.644531 L 316.019531 121.441406 L 315.710938 121.058594 L 315.917969 120.335938 L 315.90625 119.484375 L 316.617188 118.8125 L 317.148438 118.914063 L 317.558594 116.722656 L 318.441406 115.511719 L 318.953125 115.191406 L 319.257813 114.777344 L 319.382813 114.265625 L 320.394531 112.683594 L 320.503906 110.988281 L 321.195313 110.585938 L 321.753906 109.207031 L 322.367188 108.148438 L 322.910156 107.601563 L 323.339844 107.90625 L 323.550781 107.835938 L 324.554688 106.921875 L 324.9375 106.191406 L 325.625 105.480469 L 325.757813 105.089844 L 326.128906 105.035156 L 327.039063 104.363281 L 327.417969 104.375 L 327.511719 104.308594 L 327.78125 104.597656 L 327.953125 104.777344 L 328.585938 105.113281 L 329.355469 104.792969 L 329.652344 104.476563 L 330.128906 103.789063 L 331.351563 103.265625 L 332.453125 102.15625 L 332.40625 99.601563 L 332.59375 98.902344 L 332.453125 98.558594 L 332.097656 98.324219 L 332.617188 98.121094 L 333.199219 97.601563 L 333.761719 97.445313 L 334.21875 96.933594 L 335.039063 96.777344 L 335.6875 97.335938 L 336.632813 97.734375 L 337.554688 97.855469 L 338.820313 98.746094 L 339.394531 98.75 L 339.941406 99.074219 L 341.421875 99.566406 L 342.179688 100.238281 L 343.5 100.386719 L 344.789063 100.914063 L 345.601563 100.953125 Z M 346.441406 100.746094 "/>
<path style="fill-rule:evenodd;fill:rgb(9.411765%,9.411765%,9.411765%);fill-opacity:1;stroke-width:0.75;stroke-linecap:round;stroke-linejoin:round;stroke:rgb(0%,0%,0%);stroke-opacity:1;stroke-miterlimit:10;" d="M 335.039063 96.777344 L 334.21875 96.933594 L 333.761719 97.445313 L 333.199219 97.601563 L 332.617188 98.121094 L 332.097656 98.324219 L 332.453125 98.558594 L 332.59375 98.902344 L 332.40625 99.601563 L 332.453125 102.15625 L 331.351563 103.265625 L 330.128906 103.789063 L 329.652344 104.476563 L 329.355469 104.792969 L 328.585938 105.113281 L 327.953125 104.777344 L 327.78125 104.597656 L 327.511719 104.308594 L 327.417969 104.375 L 327.039063 104.363281 L 326.128906 105.035156 L 325.757813 105.089844 L 325.625 105.480469 L 324.9375 106.191406 L 324.554688 106.921875 L 323.550781 107.835938 L 323.339844 107.90625 L 322.910156 107.601563 L 322.367188 108.148438 L 321.753906 109.207031 L 321.195313 110.585938 L 320.503906 110.988281 L 320.394531 112.683594 L 319.382813 114.265625 L 319.257813 114.777344 L 318.953125 115.191406 L 318.441406 115.511719 L 317.558594 116.722656 L 317.148438 118.914063 L 316.617188 118.8125 L 315.90625 119.484375 L 315.917969 120.335938 L 315.710938 121.058594 L 316.019531 121.441406 L 315.871094 122.644531 L 316.050781 123.882813 L 316.292969 124.117188 L 316.945313 124.285156 L 316.871094 124.363281 L 316.707031 124.617188 L 315.765625 125.460938 L 311.953125 127.5 L 311.96875 128.382813 L 311.570313 128.90625 L 311.851563 129.371094 L 311.824219 129.652344 L 311.605469 129.640625 L 310.84375 129.59375 L 310.191406 129.296875 L 309.414063 129.078125 L 308.679688 128.601563 L 308.265625 128.707031 L 307.9375 128.601563 L 307.464844 129.359375 L 305.929688 130.089844 L 305.652344 130.074219 L 305.148438 129.476563 L 304.300781 129.285156 L 303.566406 128.949219 L 302.867188 128.371094 L 302.597656 128.070313 L 301.289063 126.949219 L 300.632813 126.816406 L 298.976563 126.828125 L 297.972656 127.230469 L 296.457031 127.171875 L 296.304688 127.703125 L 295 129.484375 L 294.832031 130.160156 L 294.492188 130.664063 L 292.628906 131.105469 L 291.859375 131.5 L 291.210938 131.496094 L 290.707031 132.011719 L 290 132.257813 L 288.917969 132.277344 L 287.578125 131.910156 L 287.089844 131.566406 L 286.882813 131.621094 L 286.535156 131.214844 L 285.511719 129.945313 L 284.457031 129.707031 L 283.09375 128.664063 L 281.460938 130.082031 L 281.515625 131.046875 L 280.480469 131.632813 L 280.179688 132.171875 L 278.941406 132.992188 L 278.425781 133.378906 L 277.980469 133.488281 L 276.539063 134.71875 L 275.601563 134.882813 L 274.097656 135.425781 L 273.453125 135.480469 L 272.710938 135.890625 L 270.953125 137.445313 L 270.09375 137.589844 L 268.542969 138.15625 L 268.351563 137.347656 L 268.019531 137.285156 L 267.820313 137.464844 L 267.574219 137.914063 L 267.8125 138.195313 L 267.5625 138.941406 L 266.679688 139.542969 L 266.980469 139.914063 L 266.585938 140.871094 L 266.132813 142.042969 L 265.691406 142.632813 L 265.738281 143.292969 L 265.261719 143.671875 L 264.835938 144.445313 L 263.996094 144.332031 L 263.746094 144.335938 L 262.695313 144.351563 L 261.78125 144.570313 L 261.078125 144.949219 L 260.40625 144.953125 L 258.875 144.933594 L 257.707031 144.320313 L 257.234375 144.292969 L 256.214844 143.355469 L 255.226563 142.085938 L 254.644531 140.613281 L 253.609375 138.871094 L 252.378906 138.511719 L 251.511719 137.628906 L 253.007813 136.296875 L 251.605469 135.78125 L 251.085938 135.992188 L 250.898438 135.757813 L 250.898438 134.660156 L 250.328125 134.351563 L 250.039063 133.519531 L 249.625 133.316406 L 249.585938 132.917969 L 248.382813 132.316406 L 248.339844 131.96875 L 248.113281 131.957031 L 248.050781 131.628906 L 247.558594 131.578125 L 247.472656 130.65625 L 247.058594 130.628906 L 247.351563 129.917969 L 246.796875 129.191406 L 246.09375 128.726563 L 245.753906 128.78125 L 245.570313 128.992188 L 245.246094 128.851563 L 244.945313 129.058594 L 244.292969 128.34375 L 244.394531 128.027344 L 244.054688 127.632813 L 243.949219 127.09375 L 244.5625 126.640625 L 246.121094 125.007813 L 247.320313 124.273438 L 246.488281 123.085938 L 246.28125 122.527344 L 245.304688 122.390625 L 243.351563 121.648438 L 243.253906 121.183594 L 243.496094 120.351563 L 243.988281 118.914063 L 244.933594 118.207031 L 245.027344 117.632813 L 244.878906 117.460938 L 244.753906 117.359375 L 242.988281 116.921875 L 242.195313 116.9375 L 241.070313 116.585938 L 240.644531 116.238281 L 240.789063 114.917969 L 241.136719 112.691406 L 241.066406 110.761719 L 241.46875 108.722656 L 241.792969 108.601563 L 241.988281 108.28125 L 242.183594 106.972656 L 242.226563 106.664063 L 242.132813 105.878906 L 242.15625 105.625 L 242.125 105.402344 L 241.453125 103.1875 L 241.128906 102.488281 L 240.792969 102.257813 L 240.953125 100.980469 L 241.339844 100.890625 L 242.125 101 L 241.742188 99.886719 L 242.617188 99.800781 L 243.144531 99.300781 L 243.101563 98.976563 L 242.648438 99.085938 L 242.605469 98.179688 L 242.894531 97.847656 L 243.40625 98.121094 L 243.53125 97.539063 L 243.804688 97.121094 L 243.734375 96.832031 L 244.082031 96.777344 L 243.976563 96.460938 L 244.550781 96.382813 L 244.570313 96.085938 L 244.265625 95.496094 L 244.390625 95.121094 L 245.144531 95.023438 L 245.644531 93.976563 L 246.71875 93.46875 L 247.367188 92.675781 L 247.3125 91.570313 L 247.136719 91.144531 L 247.199219 90.648438 L 247.066406 90.109375 L 246.085938 89.117188 L 245.890625 88.445313 L 245.34375 87.964844 L 245.320313 87.527344 L 245.667969 86.726563 L 245.566406 86.253906 L 245.191406 85.765625 L 244.667969 85.757813 L 244.492188 85.554688 L 244.886719 84.398438 L 244.65625 84.128906 L 244.601563 83.664063 L 244.785156 81.957031 L 244.535156 81.808594 L 244.328125 82.085938 L 243.96875 81.953125 L 243.898438 81.484375 L 243.390625 80.988281 L 243.300781 80.523438 L 243.519531 80.207031 L 243.273438 79.996094 L 243.417969 79.542969 L 243.335938 79.332031 L 241.929688 79.078125 L 241.640625 78.808594 L 241.488281 77.714844 L 241.136719 76.722656 L 241.242188 75.890625 L 241.796875 75.289063 L 242.359375 75.109375 L 242.953125 75.328125 L 244.144531 75.394531 L 247.695313 76.4375 L 248.378906 76.125 L 248.941406 76.273438 L 249.03125 76.332031 L 249.367188 76.59375 L 250.292969 76.4375 L 251.183594 76.5625 L 251.636719 76.777344 L 252.53125 76.59375 L 253.722656 76.742188 L 254.78125 76.925781 L 255.9375 77.351563 L 256.769531 77.273438 L 258.183594 77.492188 L 260.996094 77.289063 L 263.117188 76.796875 L 263.746094 76.894531 L 263.878906 77.019531 L 264.183594 76.898438 L 264.429688 76.695313 L 264.667969 76.445313 L 265.0625 76.171875 L 265.296875 75.867188 L 265.472656 75.683594 L 265.363281 75.222656 L 265.445313 74.902344 L 265.5 74.324219 L 265.8125 74.085938 L 266.058594 74.128906 L 266.667969 73.753906 L 267.117188 73.804688 L 268.085938 73.484375 L 269.058594 73.558594 L 270.417969 74.246094 L 271.007813 73.585938 L 272.589844 74.308594 L 275.203125 74.859375 L 276.804688 75.585938 L 278.105469 75.304688 L 278.789063 74.710938 L 278.769531 72.828125 L 278.9375 71.769531 L 279.75 71.664063 L 281.109375 72.085938 L 281.492188 72.46875 L 281.671875 72.9375 L 281.621094 74.050781 L 281.960938 74.578125 L 284.269531 74.949219 L 284.964844 75.3125 L 285.996094 75.1875 L 286.535156 74.960938 L 287.070313 74.695313 L 287.511719 74.703125 L 288.316406 73.632813 L 288.730469 73.515625 L 290.117188 72.488281 L 289.953125 71.746094 L 290.246094 70.0625 L 292.402344 69.703125 L 292.882813 69.589844 L 293.222656 69.746094 L 293.605469 69.765625 L 293.765625 69.703125 L 293.941406 69.742188 L 294.039063 69.785156 L 294.488281 70.34375 L 294.984375 70.476563 L 295.433594 71.050781 L 298.011719 71.460938 L 298.699219 71.585938 L 299.238281 71.597656 L 299.734375 71.6875 L 300.054688 71.714844 L 300.230469 71.769531 L 300.847656 71.789063 L 302.199219 72.367188 L 302.484375 72.464844 L 303.117188 72.566406 L 303.558594 72.550781 L 304.132813 71.949219 L 307.089844 69.898438 L 310.246094 74.050781 L 310.5 74.636719 L 311.027344 73.339844 L 310.859375 72.21875 L 310.957031 71.894531 L 311.605469 71.558594 L 311.953125 71.378906 L 312.601563 70.375 L 313.082031 70.480469 L 313.960938 70.132813 L 315.324219 70.519531 L 315.722656 70.445313 L 316.628906 71.359375 L 317.082031 71.605469 L 316.953125 71.300781 L 317.191406 71.285156 L 317.222656 70.890625 L 317.644531 70.734375 L 318.230469 70.121094 L 318.445313 70.128906 L 318.625 70.070313 L 318.714844 69.78125 L 319.277344 69.8125 L 319.445313 69.5625 L 319.773438 69.773438 L 319.847656 69.347656 L 320.160156 69.265625 L 321.066406 68.5625 L 321.195313 68.269531 L 321.867188 68.121094 L 322.304688 67.519531 L 322.570313 67.734375 L 322.660156 67.640625 L 322.648438 67.292969 L 323.085938 66.921875 L 322.996094 66.441406 L 323.574219 66.132813 L 324.078125 66.582031 L 324.78125 66.84375 L 325.421875 67.558594 L 327.089844 68.355469 L 327.78125 68.476563 L 328.40625 68.585938 L 330 67.882813 L 332.15625 67.492188 L 332.851563 67.695313 L 333.203125 68.085938 L 333.519531 68.207031 L 333.761719 68.492188 L 334.203125 69.023438 L 333.832031 69.308594 L 333.761719 69.5625 L 333.679688 69.855469 L 333.761719 70.074219 L 334.164063 71.171875 L 333.917969 72.613281 L 333.761719 72.78125 L 333.6875 72.859375 L 333.636719 73.449219 L 333.761719 73.765625 L 333.933594 74.203125 L 334.492188 74.402344 L 334.941406 74.941406 L 335.886719 74.789063 L 336.578125 74.878906 L 337.164063 75.195313 L 337.382813 75.171875 L 337.785156 75.257813 L 337.988281 75.226563 L 338.269531 75.285156 L 338.695313 75.375 L 338.828125 75.671875 L 338.265625 77.167969 L 338.574219 78.265625 L 338.957031 78.78125 L 338.890625 80.171875 L 338.6875 80.945313 L 338.640625 81.925781 L 338.871094 82.371094 L 340.761719 82.890625 L 341.050781 83.144531 L 341.3125 84.378906 L 340.894531 85.351563 L 341.011719 86.648438 L 340.34375 87.613281 L 340.378906 88.082031 L 340.777344 88.570313 L 340.71875 89.863281 L 339.960938 90.589844 L 339.542969 90.71875 L 339.503906 91.261719 L 339.207031 91.875 L 338.53125 92.472656 L 337.953125 93.449219 L 337.175781 93.90625 L 336.699219 95.128906 L 335.855469 95.804688 Z M 335.039063 96.777344 "/>
<path style="fill-rule:evenodd;fill:rgb(50.980392%,50.588235%,33.72549%);fill-opacity:1;stroke-width:0.75;stroke-linecap:round;stroke-linejoin:round;stroke:rgb(0%,0%,0%);stroke-opacity:1;stroke-miterlimit:10;" d="M 238.445313 158.230469 L 238.675781 158.476563 L 238.984375 159.246094 L 239.046875 159.46875 L 239.121094 159.539063 L 239.222656 159.882813 L 239.4375 160.367188 L 240.410156 161.972656 L 240.621094 162.582031 L 240.878906 165.9375 L 240.890625 166.273438 L 240.960938 166.640625 L 240.988281 167.003906 L 241.074219 167.246094 L 241.335938 167.816406 L 241.429688 167.96875 L 241.449219 168.089844 L 241.488281 168.765625 L 241.574219 168.972656 L 241.441406 169.800781 L 242.097656 169.636719 L 242.324219 169.441406 L 242.390625 169.277344 L 242.5625 169.25 L 242.933594 169.390625 L 243.132813 169.441406 L 243.414063 169.601563 L 243.679688 169.660156 L 244.113281 169.976563 L 244.59375 171.40625 L 245.761719 172.15625 L 247.25 173.738281 L 248.703125 174.082031 L 249.03125 174.117188 L 250.125 174.242188 L 250.800781 174.105469 L 250.894531 174.773438 L 251.253906 175.351563 L 252.886719 176.28125 L 253.339844 176.675781 L 253.59375 177.226563 L 253.945313 177.425781 L 254.382813 177.351563 L 255.238281 177.65625 L 256.234375 178.308594 L 256.75 178.234375 L 257.910156 178.226563 L 260.039063 178.820313 L 260.355469 179.078125 L 260.476563 179.445313 L 260.710938 179.792969 L 262.253906 179.925781 L 262.988281 180.804688 L 263.296875 180.957031 L 263.746094 180.949219 L 263.925781 180.945313 L 264.851563 180.542969 L 265.617188 180.683594 L 266.300781 181.28125 L 266.308594 181.621094 L 267.324219 182.339844 L 267.414063 182.988281 L 267.644531 183.066406 L 267.945313 183.679688 L 268.789063 184.257813 L 268.734375 184.703125 L 268.957031 185.191406 L 268.144531 186.890625 L 268.363281 188.71875 L 267.941406 188.558594 L 267.546875 188.175781 L 265.199219 187.648438 L 264.363281 187.851563 L 263.746094 187.796875 L 262.707031 188.4375 L 261.117188 188.429688 L 260.980469 188.410156 L 260.816406 188.496094 L 260.539063 188.542969 L 260.347656 188.65625 L 260.265625 188.761719 L 260.113281 188.816406 L 260.003906 188.832031 L 259.855469 188.941406 L 259.683594 188.980469 L 259.222656 189.238281 L 259.046875 189.292969 L 258.890625 189.367188 L 258.738281 189.492188 L 258.582031 189.527344 L 258.179688 189.332031 L 257.984375 189.277344 L 257.847656 189.265625 L 257.304688 189.074219 L 257.039063 188.945313 L 256.742188 188.769531 L 256.367188 188.601563 L 256.210938 188.589844 L 255.992188 188.5 L 255.8125 188.527344 L 255.675781 188.460938 L 255.464844 188.421875 L 255.355469 188.371094 L 254.949219 188.292969 L 254.738281 188.324219 L 254.660156 188.390625 L 254.453125 188.417969 L 254.171875 188.3125 L 253.992188 188.292969 L 253.019531 188.058594 L 251.933594 188.121094 L 250.746094 189.359375 L 250.257813 189.601563 L 249.03125 189.765625 L 247.390625 189.988281 L 246.535156 190.285156 L 243.636719 190.464844 L 242.640625 190.609375 L 240.804688 190.355469 L 239.148438 190.4375 L 237.765625 190.433594 L 237.148438 190.148438 L 234.996094 189.800781 L 234.253906 189.996094 L 233.765625 190.371094 L 233.710938 190.101563 L 233.582031 190.125 L 233.265625 190.691406 L 232.707031 191.191406 L 231.941406 192.847656 L 231.53125 193.746094 L 230.351563 195.054688 L 228.554688 198.183594 L 228.460938 198.546875 L 228.285156 198.371094 L 226.875 199.550781 L 225.875 199.503906 L 224.183594 200.097656 L 223.035156 201.257813 L 222.035156 203.664063 L 221.480469 204.488281 L 220.300781 204.535156 L 219.507813 204.742188 L 218.519531 205.585938 L 216.453125 205.894531 L 215.007813 205.917969 L 209.734375 204.515625 L 206.769531 204.585938 L 205.949219 204.953125 L 205.410156 205.011719 L 204.636719 205.773438 L 203.089844 206.546875 L 201.578125 207.730469 L 200.148438 207.617188 L 198.671875 208.355469 L 197.621094 208.308594 L 196.269531 209.21875 L 195.316406 209.820313 L 194.3125 209.988281 L 193.457031 210.746094 L 193.125 210.867188 L 192.839844 210.710938 L 192.320313 210.796875 L 190.671875 212.757813 L 189.863281 213.609375 L 188.5 217.636719 L 188.160156 217.859375 L 187.800781 217.167969 L 187.324219 216.941406 L 186.683594 216.085938 L 186.050781 216.121094 L 184.476563 216.917969 L 184.355469 216.421875 L 184.710938 215.703125 L 184.367188 215.355469 L 183.695313 213.835938 L 183.644531 212.183594 L 183.023438 210.597656 L 182.5 210.160156 L 182.554688 209.488281 L 182.371094 209.21875 L 180.386719 207.015625 L 180.15625 206 L 179.875 205.359375 L 179.632813 205.167969 L 179.398438 203.558594 L 178.765625 203.261719 L 178.359375 202.636719 L 176.910156 202.417969 L 176.546875 203.003906 L 176.148438 202.507813 L 175.253906 202.480469 L 174.339844 203.605469 L 173.738281 204.898438 L 173.367188 205.074219 L 172.84375 204.804688 L 171.429688 204.730469 L 170.726563 204.113281 L 170.21875 204.039063 L 169.796875 204.164063 L 169.269531 204.347656 L 168.875 204.144531 L 168.828125 203.859375 L 168.902344 203.3125 L 168.667969 202.019531 L 169.1875 201.554688 L 169.796875 201.546875 L 170.695313 201.691406 L 171.132813 202.082031 L 172.324219 202.367188 L 172.710938 203.058594 L 173.421875 202.828125 L 174.023438 202.074219 L 174.597656 201.660156 L 175.261719 200.21875 L 175.988281 199.859375 L 176.824219 198.835938 L 177.089844 196.800781 L 178.023438 197.128906 L 178.371094 196.886719 L 179.449219 196.65625 L 180.207031 196.160156 L 181.226563 195.917969 L 183.171875 194.0625 L 183.6875 193.316406 L 184.261719 193.128906 L 184.074219 192.847656 L 183.957031 192.675781 L 184.515625 191.960938 L 184.449219 191.75 L 184.140625 191.644531 L 184.070313 191.378906 L 184.289063 190.082031 L 184.230469 189.667969 L 184.859375 188.976563 L 185.179688 187.832031 L 185.824219 186.914063 L 185.972656 186.441406 L 185.972656 186.144531 L 184.503906 185.363281 L 184.105469 184.136719 L 183.640625 183.347656 L 183.355469 183.152344 L 183.871094 181.757813 L 184.777344 180.695313 L 185.21875 180.519531 L 185.480469 179.722656 L 186.152344 179.488281 L 187.210938 178.726563 L 187.542969 179.4375 L 188.28125 179.96875 L 189.496094 180.507813 L 189.890625 181.582031 L 190.871094 181.871094 L 191.722656 182.535156 L 192.113281 182.554688 L 192.519531 182.832031 L 194.566406 181.828125 L 195.746094 179.394531 L 195.902344 178.449219 L 196.277344 178.167969 L 196.234375 177.769531 L 197.101563 177.320313 L 196.851563 176.824219 L 196.890625 176.210938 L 196.476563 175.449219 L 196.144531 173.96875 L 195.894531 173.597656 L 196.539063 173.132813 L 196.59375 172.859375 L 195.816406 172.433594 L 195.816406 171.894531 L 195.652344 171.640625 L 195.234375 171.484375 L 194.140625 170.554688 L 194.6875 169.96875 L 195.203125 168.925781 L 195.675781 169.183594 L 195.828125 169.460938 L 196.234375 169.121094 L 197.328125 168.707031 L 197.78125 168.773438 L 198.25 168.601563 L 198.996094 168.726563 L 199.347656 168.105469 L 199.9375 167.574219 L 200.496094 167.707031 L 200.472656 167.277344 L 201.394531 167.035156 L 202.519531 166.40625 L 204.355469 164.574219 L 204.847656 164.207031 L 206.046875 163.734375 L 206.46875 163.210938 L 206.863281 162.988281 L 207.109375 161.347656 L 205.78125 160.492188 L 205.714844 160.417969 L 205.484375 160.261719 L 205.332031 160.125 L 205 160.054688 L 205.203125 158.867188 L 205.929688 159.109375 L 206.140625 158.914063 L 206.863281 158.839844 L 207.027344 158.46875 L 207.507813 159.378906 L 207.347656 159.917969 L 207.449219 160.121094 L 207.898438 160.183594 L 208.378906 159.730469 L 208.707031 159.949219 L 209.613281 159.003906 L 209.695313 158.5 L 209.554688 157.9375 L 209.734375 157.671875 L 209.828125 157.542969 L 209.828125 157.253906 L 210.554688 157.078125 L 211.601563 157.265625 L 211.652344 157.699219 L 211.316406 158.0625 L 211.480469 158.417969 L 211.960938 158.542969 L 212.34375 159.054688 L 212.75 159.070313 L 212.710938 159.84375 L 212.941406 160.210938 L 213.167969 160.207031 L 213.28125 159.941406 L 213.535156 160.109375 L 213.886719 159.472656 L 214.804688 159.121094 L 214.996094 158.710938 L 216.457031 158.144531 L 216.9375 157.808594 L 217.457031 157.464844 L 217.726563 157.316406 L 217.5 157.054688 L 217.523438 156.714844 L 216.722656 156.304688 L 216.476563 155.328125 L 217.15625 154.457031 L 216.347656 154.144531 L 216.378906 153.742188 L 216.46875 153.652344 L 216.5625 153.507813 L 217.125 153.082031 L 217.429688 153.5 L 218.207031 153.304688 L 218.777344 153.605469 L 219.402344 153.230469 L 219.773438 153.433594 L 220.078125 153.4375 L 220.34375 153.230469 L 220.730469 153.34375 L 221.175781 153.910156 L 222.007813 153.46875 L 222.703125 153.320313 L 222.867188 153.46875 L 222.886719 154.230469 L 223.035156 154.355469 L 223.5 154.742188 L 223.835938 155.691406 L 223.445313 156.066406 L 223.507813 156.527344 L 225.019531 156.488281 L 225.199219 156.394531 L 225.28125 156.050781 L 225.78125 155.859375 L 226.675781 156.003906 L 226.972656 156.347656 L 227.238281 156.332031 L 228.570313 155.660156 L 229.011719 155.183594 L 229.175781 155.566406 L 229.644531 155.035156 L 229.550781 154.523438 L 229.914063 154.597656 L 230.09375 154.476563 L 230.222656 154.039063 L 229.886719 153.726563 L 230 153.492188 L 230.34375 153.3125 L 230.609375 153.636719 L 231.074219 153.523438 L 230.867188 153.242188 L 231.410156 153.101563 L 232.039063 151.902344 L 232.367188 151.835938 L 232.808594 152.054688 L 233.53125 151.53125 L 234.113281 152.046875 L 235.078125 152.074219 L 235.410156 151.871094 L 235.679688 152.246094 L 235.570313 152.894531 L 235.773438 153.3125 L 235.617188 153.867188 L 235.722656 154.25 L 235.324219 154.546875 L 235.457031 155.003906 L 235.964844 156.023438 L 236.03125 156.109375 L 236.183594 156.160156 L 237.464844 156.207031 L 238.636719 156.855469 L 238.222656 157.617188 Z M 238.445313 158.230469 "/>
</g>
</svg>
